<?xml version="1.0" encoding="UTF-8" standalone="no"?>
<!-- Created with Inkscape (http://www.inkscape.org/) -->

<svg
   xmlns:dc="http://purl.org/dc/elements/1.1/"
   xmlns:cc="http://creativecommons.org/ns#"
   xmlns:rdf="http://www.w3.org/1999/02/22-rdf-syntax-ns#"
   xmlns:svg="http://www.w3.org/2000/svg"
   xmlns="http://www.w3.org/2000/svg"
   xmlns:xlink="http://www.w3.org/1999/xlink"
   xmlns:sodipodi="http://sodipodi.sourceforge.net/DTD/sodipodi-0.dtd"
   xmlns:inkscape="http://www.inkscape.org/namespaces/inkscape"
   width="20.32mm"
   height="128.5mm"
   viewBox="0 0 20.320001 128.50002"
   version="1.1"
   id="svg8"
   inkscape:version="0.92.2 5c3e80d, 2017-08-06"
   sodipodi:docname="2DRotation.svg">
  <defs
     id="defs2">
    <linearGradient
       inkscape:collect="always"
       id="linearGradient2728">
      <stop
         style="stop-color:#000000;stop-opacity:1;"
         offset="0"
         id="stop2724" />
      <stop
         style="stop-color:#000000;stop-opacity:0;"
         offset="1"
         id="stop2726" />
    </linearGradient>
    <linearGradient
       inkscape:collect="always"
       xlink:href="#linearGradient2728"
       id="linearGradient2730"
       x1="10.415087"
       y1="182.55446"
       x2="16.92115"
       y2="182.55446"
       gradientUnits="userSpaceOnUse" />
  </defs>
  <sodipodi:namedview
     id="base"
     pagecolor="#ffffff"
     bordercolor="#666666"
     borderopacity="1.0"
     inkscape:pageopacity="0.0"
     inkscape:pageshadow="2"
     inkscape:zoom="4.7521977"
     inkscape:cx="91.277669"
     inkscape:cy="52.37614"
     inkscape:document-units="mm"
     inkscape:current-layer="layer1"
     showgrid="false"
     units="mm"
     inkscape:snap-bbox="true"
     inkscape:snap-page="true"
     inkscape:bbox-nodes="false"
     inkscape:snap-bbox-edge-midpoints="false"
     inkscape:window-width="1452"
     inkscape:window-height="1029"
     inkscape:window-x="80"
     inkscape:window-y="0"
     inkscape:window-maximized="0"
     inkscape:snap-bbox-midpoints="true"
     inkscape:snap-nodes="false" />
  <metadata
     id="metadata5">
    <rdf:RDF>
      <cc:Work
         rdf:about="">
        <dc:format>image/svg+xml</dc:format>
        <dc:type
           rdf:resource="http://purl.org/dc/dcmitype/StillImage" />
        <dc:title />
      </cc:Work>
    </rdf:RDF>
  </metadata>
  <g
     inkscape:label="Layer 1"
     inkscape:groupmode="layer"
     id="layer1"
     transform="translate(0,-168.49998)"
     style="display:inline">
    <rect
       style="display:inline;opacity:1;vector-effect:none;fill:#e6e6e6;fill-opacity:1;fill-rule:evenodd;stroke:none;stroke-width:0.53019887;stroke-linecap:butt;stroke-linejoin:miter;stroke-miterlimit:4;stroke-dasharray:none;stroke-dashoffset:0;stroke-opacity:1;paint-order:normal"
       id="rect420"
       width="20.32"
       height="128.5"
       x="5.9211732e-17"
       y="168.49997" />
    <g
       aria-label="-     + "
       style="font-style:normal;font-variant:normal;font-weight:normal;font-stretch:condensed;font-size:4.23333311px;line-height:1.25;font-family:'Arial Narrow';-inkscape-font-specification:'Arial Narrow, Condensed';font-variant-ligatures:normal;font-variant-caps:normal;font-variant-numeric:normal;font-feature-settings:normal;text-align:start;letter-spacing:0px;word-spacing:0px;writing-mode:lr-tb;text-anchor:start;display:inline;opacity:0.87300002;fill:#000000;fill-opacity:1;stroke:none;stroke-width:0.26458332"
       id="text1297"
       transform="translate(0.1329072,-14.287503)">
      <path
         d="m 6.1689303,224.65432 v -0.37413 h 0.9363769 v 0.37413 z"
         style="font-style:normal;font-variant:normal;font-weight:normal;font-stretch:condensed;font-size:4.23333311px;font-family:'Arial Narrow';-inkscape-font-specification:'Arial Narrow, Condensed';font-variant-ligatures:normal;font-variant-caps:normal;font-variant-numeric:normal;font-feature-settings:normal;text-align:start;writing-mode:lr-tb;text-anchor:start;stroke-width:0.26458332"
         id="path860"
         inkscape:connector-curvature="0" />
      <path
         d="m 12.919939,225.07393 v -0.83095 h -0.675928 v -0.34727 h 0.675928 v -0.82475 h 0.289388 v 0.82475 h 0.675928 v 0.34727 h -0.675928 v 0.83095 z"
         style="font-style:normal;font-variant:normal;font-weight:normal;font-stretch:condensed;font-size:4.23333311px;font-family:'Arial Narrow';-inkscape-font-specification:'Arial Narrow, Condensed';font-variant-ligatures:normal;font-variant-caps:normal;font-variant-numeric:normal;font-feature-settings:normal;text-align:start;writing-mode:lr-tb;text-anchor:start;stroke-width:0.26458332"
         id="path862"
         inkscape:connector-curvature="0" />
    </g>
    <path
       style="display:inline;opacity:1;fill:#ff0000;fill-opacity:1;stroke:#8d8d8d;stroke-width:0.326;stroke-linecap:butt;stroke-linejoin:miter;stroke-miterlimit:14.80000019;stroke-dasharray:1.30400001,0.326;stroke-dashoffset:0.0978;stroke-opacity:1"
       d="m 10.16,226.99679 c 0,-20.48383 0,-20.48383 0,-20.48383"
       id="path4990"
       inkscape:connector-curvature="0" />
    <g
       aria-label="2D"
       style="font-style:normal;font-weight:normal;font-size:10.58333302px;line-height:1.25;font-family:sans-serif;letter-spacing:0px;word-spacing:0px;fill:#c00000;fill-opacity:1;stroke:none;stroke-width:0.26458332"
       id="text860"
       transform="translate(-0.34727325)">
      <path
         d="m 8.6159155,179.53821 h 1.0790039 q 0.1612304,0 0.2459798,0.0661 0.08475,0.0661 0.08475,0.17984 0,0.10128 -0.068213,0.17156 -0.066146,0.0703 -0.2025716,0.0703 H 8.2335099 q -0.1550293,0 -0.2418457,-0.0847 -0.086816,-0.0868 -0.086816,-0.20257 0,-0.0744 0.055811,-0.19637 0.05581,-0.12402 0.1219563,-0.1943 0.2749187,-0.28526 0.4960938,-0.48783 0.2211751,-0.20464 0.3162597,-0.26872 0.1694987,-0.11989 0.2811198,-0.23977 0.1136881,-0.12196 0.1715657,-0.24805 0.059945,-0.12816 0.059945,-0.25012 0,-0.13229 -0.064079,-0.23564 -0.062012,-0.10542 -0.1715657,-0.1633 -0.107487,-0.0579 -0.2356445,-0.0579 -0.2707845,0 -0.4258138,0.23772 -0.020671,0.031 -0.07028,0.1695 -0.047542,0.13849 -0.109554,0.2129 -0.059945,0.0744 -0.1777669,0.0744 -0.1033529,0 -0.1715658,-0.0682 -0.068213,-0.0682 -0.068213,-0.18603 0,-0.14263 0.064079,-0.29766 0.064079,-0.15503 0.1901693,-0.28112 0.1281575,-0.12609 0.3224609,-0.20257 0.1963704,-0.0785 0.4588867,-0.0785 0.3162598,0 0.5395019,0.0992 0.144694,0.0662 0.2542481,0.1819 0.109554,0.11576 0.1694987,0.26872 0.062012,0.15089 0.062012,0.31419 0,0.25632 -0.1281576,0.46716 -0.1260905,0.20877 -0.2583821,0.32866 -0.1322917,0.11782 -0.4444173,0.37207 -0.3100586,0.25425 -0.4258138,0.39481 -0.049609,0.0558 -0.1012858,0.13436 z"
         style="font-style:normal;font-variant:normal;font-weight:normal;font-stretch:normal;font-size:4.23333311px;font-family:'Arial Rounded MT Bold';-inkscape-font-specification:'Arial Rounded MT Bold, Normal';font-variant-ligatures:normal;font-variant-caps:normal;font-variant-numeric:normal;font-feature-settings:normal;text-align:start;writing-mode:lr-tb;text-anchor:start;stroke-width:0.26458332;fill:#c00000;fill-opacity:1"
         id="path866"
         inkscape:connector-curvature="0" />
      <path
         d="m 10.89588,176.99573 h 0.799951 q 0.312125,0 0.535367,0.0579 0.223243,0.0579 0.405144,0.21704 0.473356,0.40515 0.473356,1.23197 0,0.27285 -0.04754,0.49816 -0.04754,0.22531 -0.146761,0.40721 -0.09922,0.17984 -0.254248,0.32246 -0.121956,0.10956 -0.26665,0.1757 -0.144694,0.0661 -0.312126,0.093 -0.165364,0.0269 -0.374137,0.0269 h -0.799951 q -0.167432,0 -0.252181,-0.0496 -0.08475,-0.0517 -0.111621,-0.14262 -0.02481,-0.093 -0.02481,-0.23978 v -2.22209 q 0,-0.19844 0.08888,-0.28732 0.08888,-0.0889 0.287321,-0.0889 z m 0.237711,0.48575 v 2.05673 h 0.465088 q 0.152962,0 0.239779,-0.008 0.08682,-0.008 0.179834,-0.0413 0.09302,-0.0331 0.16123,-0.093 0.307992,-0.26045 0.307992,-0.8971 0,-0.44856 -0.136426,-0.6718 -0.134359,-0.22324 -0.332796,-0.28318 -0.198438,-0.062 -0.479558,-0.062 z"
         style="font-style:normal;font-variant:normal;font-weight:normal;font-stretch:normal;font-size:4.23333311px;font-family:'Arial Rounded MT Bold';-inkscape-font-specification:'Arial Rounded MT Bold, Normal';font-variant-ligatures:normal;font-variant-caps:normal;font-variant-numeric:normal;font-feature-settings:normal;text-align:start;writing-mode:lr-tb;text-anchor:start;stroke-width:0.26458332;fill:#c00000;fill-opacity:1"
         id="path868"
         inkscape:connector-curvature="0" />
    </g>
    <g
       aria-label="Rotation"
       style="font-style:normal;font-weight:normal;font-size:10.58333302px;line-height:1.25;font-family:sans-serif;letter-spacing:0px;word-spacing:0px;fill:#bf0000;fill-opacity:1;stroke:none;stroke-width:0.26458332"
       id="text864"
       transform="translate(-0.32045395)">
      <path
         d="M 3.024575,182.93545 H 2.8096011 v 0.97358 q 0,0.19224 -0.084749,0.28319 -0.084749,0.091 -0.2211752,0.091 -0.146761,0 -0.2273763,-0.0951 -0.080615,-0.0951 -0.080615,-0.27905 v -2.33164 q 0,-0.19844 0.088884,-0.28732 0.088883,-0.0889 0.2873209,-0.0889 h 0.9983886 q 0.2067058,0 0.3534668,0.0186 0.1467611,0.0165 0.2645833,0.0703 0.142627,0.0599 0.252181,0.17156 0.109554,0.11163 0.1653646,0.26045 0.057878,0.14676 0.057878,0.31213 0,0.339 -0.1922363,0.54157 -0.1901693,0.20257 -0.578776,0.28732 0.1632975,0.0868 0.3121256,0.25631 0.1488281,0.1695 0.2645833,0.36174 0.1178223,0.19017 0.181901,0.3452 0.066146,0.15296 0.066146,0.21084 0,0.0599 -0.039274,0.11989 -0.037207,0.0579 -0.1033529,0.0909 -0.066146,0.0351 -0.1529622,0.0351 -0.1033529,0 -0.1736328,-0.0496 -0.07028,-0.0475 -0.1219564,-0.12196 -0.049609,-0.0744 -0.1364257,-0.21911 l -0.2459799,-0.40927 q -0.1322916,-0.22531 -0.2377115,-0.34314 -0.1033529,-0.11782 -0.2108399,-0.16123 -0.1074869,-0.0434 -0.2707845,-0.0434 z m 0.3513998,-1.27331 H 2.8096011 v 0.83302 h 0.5498372 q 0.2211751,0 0.3720703,-0.0372 0.1508952,-0.0393 0.2294433,-0.13023 0.080615,-0.093 0.080615,-0.25425 0,-0.12609 -0.064079,-0.22117 -0.064079,-0.0971 -0.1777669,-0.1447 -0.107487,-0.0455 -0.4237467,-0.0455 z"
         style="font-style:normal;font-variant:normal;font-weight:normal;font-stretch:normal;font-size:4.23333311px;font-family:'Arial Rounded MT Bold';-inkscape-font-specification:'Arial Rounded MT Bold, Normal';font-variant-ligatures:normal;font-variant-caps:normal;font-variant-numeric:normal;font-feature-settings:normal;text-align:start;writing-mode:lr-tb;text-anchor:start;stroke-width:0.26458332;fill:#bf0000;fill-opacity:1"
         id="path871"
         inkscape:connector-curvature="0" />
      <path
         d="m 7.2124327,183.13595 q 0,0.25218 -0.078548,0.46509 -0.078548,0.21291 -0.2273762,0.36587 -0.1488282,0.15296 -0.3555339,0.23564 -0.2067057,0.0806 -0.4650878,0.0806 -0.2563151,0 -0.4609538,-0.0827 -0.2046387,-0.0827 -0.3555338,-0.23565 -0.1488282,-0.15503 -0.2273763,-0.3638 -0.076481,-0.21084 -0.076481,-0.46509 0,-0.25631 0.078548,-0.46922 0.078548,-0.21291 0.2253093,-0.3638 0.146761,-0.1509 0.3555338,-0.23151 0.2087728,-0.0827 0.4609538,-0.0827 0.256315,0 0.4650878,0.0827 0.2087728,0.0827 0.3576009,0.23564 0.1488281,0.15296 0.2253092,0.3638 0.078548,0.21084 0.078548,0.46509 z m -0.5663736,0 q 0,-0.3452 -0.1529623,-0.53743 -0.1508952,-0.19224 -0.4072102,-0.19224 -0.1653646,0 -0.2914551,0.0868 -0.1260905,0.0848 -0.1943034,0.25218 -0.068213,0.16743 -0.068213,0.39067 0,0.22118 0.066146,0.38654 0.068213,0.16537 0.1922363,0.25425 0.1260905,0.0868 0.2955892,0.0868 0.256315,0 0.4072102,-0.19223 0.1529623,-0.1943 0.1529623,-0.53537 z"
         style="font-style:normal;font-variant:normal;font-weight:normal;font-stretch:normal;font-size:4.23333311px;font-family:'Arial Rounded MT Bold';-inkscape-font-specification:'Arial Rounded MT Bold, Normal';font-variant-ligatures:normal;font-variant-caps:normal;font-variant-numeric:normal;font-feature-settings:normal;text-align:start;writing-mode:lr-tb;text-anchor:start;stroke-width:0.26458332;fill:#bf0000;fill-opacity:1"
         id="path873"
         inkscape:connector-curvature="0" />
      <path
         d="m 7.6899231,182.03834 h 0.062012 v -0.33899 q 0,-0.13643 0.0062,-0.21291 0.00827,-0.0785 0.041341,-0.13436 0.033073,-0.0579 0.095085,-0.093 0.062012,-0.0372 0.1384929,-0.0372 0.1074869,0 0.1943033,0.0806 0.057878,0.0537 0.072347,0.13229 0.016536,0.0765 0.016536,0.21911 v 0.38447 H 8.522946 q 0.1198893,0 0.1819011,0.0579 0.064079,0.0558 0.064079,0.1447 0,0.11368 -0.09095,0.15916 -0.088883,0.0455 -0.2563151,0.0455 H 8.3162414 v 1.03767 q 0,0.13229 0.00827,0.20464 0.010335,0.0703 0.049609,0.11575 0.041341,0.0434 0.1322917,0.0434 0.049609,0 0.1343587,-0.0165 0.084749,-0.0186 0.1322916,-0.0186 0.068213,0 0.1219564,0.0558 0.055811,0.0537 0.055811,0.13436 0,0.13642 -0.1488282,0.20877 -0.1488281,0.0724 -0.4278808,0.0724 -0.2645833,0 -0.4010091,-0.0889 -0.1364258,-0.0889 -0.179834,-0.24598 -0.041341,-0.15709 -0.041341,-0.41961 v -1.08314 h -0.074414 q -0.1219563,0 -0.1860351,-0.0579 -0.064079,-0.0579 -0.064079,-0.14676 0,-0.0889 0.066146,-0.1447 0.068213,-0.0579 0.1963705,-0.0579 z"
         style="font-style:normal;font-variant:normal;font-weight:normal;font-stretch:normal;font-size:4.23333311px;font-family:'Arial Rounded MT Bold';-inkscape-font-specification:'Arial Rounded MT Bold, Normal';font-variant-ligatures:normal;font-variant-caps:normal;font-variant-numeric:normal;font-feature-settings:normal;text-align:start;writing-mode:lr-tb;text-anchor:start;stroke-width:0.26458332;fill:#bf0000;fill-opacity:1"
         id="path875"
         inkscape:connector-curvature="0" />
      <path
         d="m 10.581736,183.96484 q -0.204638,0.15916 -0.396875,0.23978 -0.190169,0.0786 -0.4278805,0.0786 -0.217041,0 -0.3824056,-0.0848 -0.1632975,-0.0868 -0.252181,-0.23358 -0.088883,-0.14676 -0.088883,-0.31833 0,-0.23151 0.146761,-0.3948 0.1467611,-0.1633 0.4030762,-0.21911 0.053744,-0.0124 0.2666503,-0.0558 0.2129066,-0.0434 0.3638016,-0.0786 0.152962,-0.0372 0.330729,-0.0889 -0.01034,-0.22325 -0.09095,-0.3266 -0.07855,-0.10542 -0.328662,-0.10542 -0.2149739,0 -0.3245279,0.0599 -0.107487,0.0599 -0.1860352,0.17983 -0.076481,0.11989 -0.109554,0.15916 -0.031006,0.0372 -0.1364258,0.0372 -0.095085,0 -0.1653646,-0.0599 -0.068213,-0.062 -0.068213,-0.1571 0,-0.14883 0.1054199,-0.28939 0.1054199,-0.14056 0.3286621,-0.23151 0.2232421,-0.0909 0.5560385,-0.0909 0.37207,0 0.584977,0.0889 0.212907,0.0868 0.299723,0.27699 0.08888,0.19017 0.08888,0.50436 0,0.19844 -0.0021,0.33693 0,0.13849 -0.0021,0.30799 0,0.15917 0.05168,0.3328 0.05374,0.17156 0.05374,0.22117 0,0.0868 -0.08268,0.15917 -0.08061,0.0703 -0.183968,0.0703 -0.08682,0 -0.171566,-0.0806 -0.08475,-0.0827 -0.179834,-0.23771 z m -0.03721,-0.81649 q -0.124023,0.0455 -0.361735,0.0971 -0.2356443,0.0496 -0.3265948,0.0744 -0.09095,0.0227 -0.1736328,0.093 -0.082682,0.0682 -0.082682,0.19223 0,0.12816 0.097152,0.21911 0.097152,0.0889 0.254248,0.0889 0.1674316,0 0.3079916,-0.0723 0.142627,-0.0744 0.208773,-0.19017 0.07648,-0.12816 0.07648,-0.42168 z"
         style="font-style:normal;font-variant:normal;font-weight:normal;font-stretch:normal;font-size:4.23333311px;font-family:'Arial Rounded MT Bold';-inkscape-font-specification:'Arial Rounded MT Bold, Normal';font-variant-ligatures:normal;font-variant-caps:normal;font-variant-numeric:normal;font-feature-settings:normal;text-align:start;writing-mode:lr-tb;text-anchor:start;stroke-width:0.26458332;fill:#bf0000;fill-opacity:1"
         id="path877"
         inkscape:connector-curvature="0" />
      <path
         d="m 11.596661,182.03834 h 0.06201 v -0.33899 q 0,-0.13643 0.0062,-0.21291 0.0083,-0.0785 0.04134,-0.13436 0.03307,-0.0579 0.09508,-0.093 0.06201,-0.0372 0.138493,-0.0372 0.107487,0 0.194303,0.0806 0.05788,0.0537 0.07235,0.13229 0.01654,0.0765 0.01654,0.21911 v 0.38447 h 0.206705 q 0.11989,0 0.181901,0.0579 0.06408,0.0558 0.06408,0.1447 0,0.11368 -0.09095,0.15916 -0.08888,0.0455 -0.256315,0.0455 h -0.10542 v 1.03767 q 0,0.13229 0.0083,0.20464 0.01033,0.0703 0.04961,0.11575 0.04134,0.0434 0.132292,0.0434 0.04961,0 0.134359,-0.0165 0.08475,-0.0186 0.132291,-0.0186 0.06821,0 0.121957,0.0558 0.05581,0.0537 0.05581,0.13436 0,0.13642 -0.148828,0.20877 -0.148828,0.0724 -0.427881,0.0724 -0.264583,0 -0.401009,-0.0889 -0.136426,-0.0889 -0.179834,-0.24598 -0.04134,-0.15709 -0.04134,-0.41961 v -1.08314 h -0.07441 q -0.121956,0 -0.186035,-0.0579 -0.06408,-0.0579 -0.06408,-0.14676 0,-0.0889 0.06615,-0.1447 0.06821,-0.0579 0.19637,-0.0579 z"
         style="font-style:normal;font-variant:normal;font-weight:normal;font-stretch:normal;font-size:4.23333311px;font-family:'Arial Rounded MT Bold';-inkscape-font-specification:'Arial Rounded MT Bold, Normal';font-variant-ligatures:normal;font-variant-caps:normal;font-variant-numeric:normal;font-feature-settings:normal;text-align:start;writing-mode:lr-tb;text-anchor:start;stroke-width:0.26458332;fill:#bf0000;fill-opacity:1"
         id="path879"
         inkscape:connector-curvature="0" />
      <path
         d="m 13.630646,182.30913 v 1.63091 q 0,0.16949 -0.08061,0.25631 -0.08062,0.0868 -0.204639,0.0868 -0.124023,0 -0.202572,-0.0889 -0.07648,-0.0889 -0.07648,-0.25424 v -1.61438 q 0,-0.16743 0.07648,-0.25218 0.07855,-0.0847 0.202572,-0.0847 0.124023,0 0.204639,0.0847 0.08061,0.0848 0.08061,0.23565 z m -0.279053,-0.58291 q -0.117822,0 -0.202571,-0.0724 -0.08268,-0.0724 -0.08268,-0.20464 0,-0.11989 0.08475,-0.19637 0.08682,-0.0786 0.200504,-0.0786 0.109554,0 0.194304,0.0703 0.08475,0.0703 0.08475,0.20464 0,0.13023 -0.08268,0.20464 -0.08268,0.0724 -0.196371,0.0724 z"
         style="font-style:normal;font-variant:normal;font-weight:normal;font-stretch:normal;font-size:4.23333311px;font-family:'Arial Rounded MT Bold';-inkscape-font-specification:'Arial Rounded MT Bold, Normal';font-variant-ligatures:normal;font-variant-caps:normal;font-variant-numeric:normal;font-feature-settings:normal;text-align:start;writing-mode:lr-tb;text-anchor:start;stroke-width:0.26458332;fill:#bf0000;fill-opacity:1"
         id="path881"
         inkscape:connector-curvature="0" />
      <path
         d="m 16.328155,183.13595 q 0,0.25218 -0.07855,0.46509 -0.07855,0.21291 -0.227376,0.36587 -0.148828,0.15296 -0.355534,0.23564 -0.206706,0.0806 -0.465088,0.0806 -0.256315,0 -0.460954,-0.0827 -0.204638,-0.0827 -0.355534,-0.23565 -0.148828,-0.15503 -0.227376,-0.3638 -0.07648,-0.21084 -0.07648,-0.46509 0,-0.25631 0.07855,-0.46922 0.07855,-0.21291 0.225309,-0.3638 0.146761,-0.1509 0.355534,-0.23151 0.208773,-0.0827 0.460954,-0.0827 0.256315,0 0.465088,0.0827 0.208773,0.0827 0.357601,0.23564 0.148828,0.15296 0.225309,0.3638 0.07855,0.21084 0.07855,0.46509 z m -0.566374,0 q 0,-0.3452 -0.152962,-0.53743 -0.150895,-0.19224 -0.40721,-0.19224 -0.165365,0 -0.291455,0.0868 -0.126091,0.0848 -0.194303,0.25218 -0.06821,0.16743 -0.06821,0.39067 0,0.22118 0.06614,0.38654 0.06821,0.16537 0.192237,0.25425 0.12609,0.0868 0.295589,0.0868 0.256315,0 0.40721,-0.19223 0.152962,-0.1943 0.152962,-0.53537 z"
         style="font-style:normal;font-variant:normal;font-weight:normal;font-stretch:normal;font-size:4.23333311px;font-family:'Arial Rounded MT Bold';-inkscape-font-specification:'Arial Rounded MT Bold, Normal';font-variant-ligatures:normal;font-variant-caps:normal;font-variant-numeric:normal;font-feature-settings:normal;text-align:start;writing-mode:lr-tb;text-anchor:start;stroke-width:0.26458332;fill:#bf0000;fill-opacity:1"
         id="path883"
         inkscape:connector-curvature="0" />
      <path
         d="m 17.283136,182.30086 v 0.0682 q 0.148828,-0.19637 0.324528,-0.28732 0.177767,-0.093 0.40721,-0.093 0.223242,0 0.398942,0.0972 0.1757,0.0971 0.262516,0.27491 0.05581,0.10336 0.07235,0.22325 0.01654,0.11989 0.01654,0.30592 v 1.05007 q 0,0.16949 -0.07855,0.25631 -0.07648,0.0868 -0.200505,0.0868 -0.12609,0 -0.204639,-0.0889 -0.07855,-0.0889 -0.07855,-0.25424 v -0.94051 q 0,-0.27906 -0.07855,-0.42582 -0.07648,-0.14883 -0.307991,-0.14883 -0.150896,0 -0.274919,0.0909 -0.124023,0.0889 -0.181901,0.24598 -0.04134,0.12609 -0.04134,0.47129 v 0.70694 q 0,0.17156 -0.08062,0.25838 -0.07855,0.0848 -0.204639,0.0848 -0.121956,0 -0.200505,-0.0889 -0.07855,-0.0889 -0.07855,-0.25424 v -1.63091 q 0,-0.16123 0.07028,-0.23978 0.07028,-0.0806 0.192237,-0.0806 0.07441,0 0.134358,0.0351 0.05994,0.0351 0.09509,0.10542 0.03721,0.0703 0.03721,0.17157 z"
         style="font-style:normal;font-variant:normal;font-weight:normal;font-stretch:normal;font-size:4.23333311px;font-family:'Arial Rounded MT Bold';-inkscape-font-specification:'Arial Rounded MT Bold, Normal';font-variant-ligatures:normal;font-variant-caps:normal;font-variant-numeric:normal;font-feature-settings:normal;text-align:start;writing-mode:lr-tb;text-anchor:start;stroke-width:0.26458332;fill:#bf0000;fill-opacity:1"
         id="path885"
         inkscape:connector-curvature="0" />
    </g>
    <g
       aria-label="θ"
       style="font-style:normal;font-weight:normal;font-size:10.58333302px;line-height:1.25;font-family:sans-serif;letter-spacing:0px;word-spacing:0px;fill:#000000;fill-opacity:1;stroke:none;stroke-width:0.26458332"
       id="text894"
       transform="translate(0.20810145,-12.700002)">
      <path
         d="m 11.162507,202.93941 q 0,0.45819 -0.05547,0.76446 -0.05547,0.30386 -0.142282,0.50643 -0.139871,0.32556 -0.393085,0.49196 -0.253215,0.16399 -0.6197731,0.16399 -0.3665582,0 -0.6197727,-0.16399 -0.2532145,-0.1664 -0.3930854,-0.49196 -0.089228,-0.20257 -0.144694,-0.50643 -0.053055,-0.30627 -0.053055,-0.76446 0,-0.41962 0.053055,-0.73553 0.055466,-0.31833 0.1471056,-0.51849 0.1374593,-0.3135 0.3906738,-0.4799 0.2556261,-0.1664 0.6197727,-0.1664 0.3641471,0 0.6173611,0.1664 0.255626,0.1664 0.393085,0.4799 0.08923,0.20257 0.144694,0.51849 0.05547,0.31591 0.05547,0.73553 z m -0.455786,-0.21705 q -0.0096,-0.34485 -0.06993,-0.60289 -0.05788,-0.25804 -0.135048,-0.38826 -0.09887,-0.16881 -0.229099,-0.23633 -0.130224,-0.0699 -0.3207381,-0.0699 -0.1905138,0 -0.3207384,0.0699 -0.1302246,0.0675 -0.2290988,0.23633 -0.081993,0.13264 -0.1398709,0.39067 -0.055466,0.25563 -0.065112,0.60048 z m 0,0.38827 H 9.1970805 q 0,0.34244 0.055466,0.62459 0.055466,0.27974 0.1422825,0.42926 0.096463,0.1664 0.2315104,0.24116 0.1350477,0.0748 0.3255615,0.0748 0.1905141,0 0.3255611,-0.0748 0.135048,-0.0748 0.231511,-0.24116 0.08682,-0.14952 0.142282,-0.42926 0.05547,-0.28215 0.05547,-0.62459 z"
         style="font-style:normal;font-variant:normal;font-weight:normal;font-stretch:normal;font-size:4.93888903px;font-family:sans-serif;-inkscape-font-specification:'sans-serif, Normal';font-variant-ligatures:normal;font-variant-caps:normal;font-variant-numeric:normal;font-feature-settings:normal;text-align:start;writing-mode:lr-tb;text-anchor:start;opacity:1"
         id="path898"
         inkscape:connector-curvature="0" />
    </g>
    <g
       aria-label="ΔY"
       style="font-style:normal;font-variant:normal;font-weight:normal;font-stretch:normal;font-size:4.23333311px;line-height:1.25;font-family:sans-serif;-inkscape-font-specification:'sans-serif, Normal';font-variant-ligatures:normal;font-variant-caps:normal;font-variant-numeric:normal;font-feature-settings:normal;text-align:start;letter-spacing:0px;word-spacing:0px;writing-mode:lr-tb;text-anchor:start;fill:#939393;fill-opacity:1;stroke:none;stroke-width:0.26458332"
       id="text903"
       transform="translate(0.52916667,-6.645532)">
      <path
         d="m 14.916153,241.70604 h -2.869076 l 1.161686,-3.07785 h 0.545704 z m -0.551905,-0.34727 -0.892968,-2.37091 -0.890902,2.37091 z"
         id="path916"
         inkscape:connector-curvature="0"
         style="fill:#939393;fill-opacity:1" />
      <path
         d="m 14.961628,238.61992 h 0.448551 l 0.855762,1.26918 0.84956,-1.26918 h 0.448552 l -1.091406,1.61644 v 1.46968 h -0.419613 v -1.46968 z"
         id="path918"
         inkscape:connector-curvature="0"
         style="fill:#939393;fill-opacity:1" />
    </g>
    <g
       aria-label="ΔX"
       style="font-style:normal;font-variant:normal;font-weight:normal;font-stretch:normal;font-size:4.23333311px;line-height:1.25;font-family:sans-serif;-inkscape-font-specification:'sans-serif, Normal';font-variant-ligatures:normal;font-variant-caps:normal;font-variant-numeric:normal;font-feature-settings:normal;text-align:start;letter-spacing:0px;word-spacing:0px;writing-mode:lr-tb;text-anchor:start;fill:#939393;fill-opacity:1;stroke:none;stroke-width:0.26458332"
       id="text909"
       transform="translate(-3.6666667e-8,-7.112802)">
      <path
         d="M 5.4149415,242.17331 H 2.5458661 l 1.1616862,-3.07785 h 0.5457031 z m -0.5519043,-0.34727 -0.8929687,-2.37091 -0.8909016,2.37091 z"
         id="path911"
         inkscape:connector-curvature="0"
         style="fill:#939393;fill-opacity:1" />
      <path
         d="m 5.7353353,239.08719 h 0.4485514 l 0.7668782,1.14722 0.7710123,-1.14722 h 0.4485514 l -0.9921874,1.48208 1.0583333,1.60404 H 7.7879231 l -0.868164,-1.31258 -0.8743652,1.31258 H 5.5947754 l 1.1017415,-1.64745 z"
         id="path913"
         inkscape:connector-curvature="0"
         style="fill:#939393;fill-opacity:1" />
    </g>
    <rect
       style="opacity:1;fill:#7a7ace;fill-opacity:1;stroke-width:0.2;stroke-miterlimit:14.80000019;stroke-dasharray:0.4, 0.20000000000000001;stroke-dashoffset:0.06;stroke:none;stroke-opacity:1"
       id="rect1102"
       width="18.690908"
       height="9.9684839"
       x="0.9345457"
       y="281.67383"
       ry="1.2797598" />
    <g
       aria-label="OUT"
       style="font-style:normal;font-weight:normal;font-size:10.58333302px;line-height:1.25;font-family:sans-serif;letter-spacing:0px;word-spacing:0px;fill:#c00000;fill-opacity:1;stroke:none;stroke-width:0.26458332"
       id="text1108"
       transform="translate(0.0508073,0.21019504)">
      <path
         d="m 8.6260788,281.88275 q -0.2273762,0 -0.361735,0.16949 -0.1333251,0.1695 -0.1333251,0.46199 0,0.29146 0.1333251,0.46096 0.1343588,0.16949 0.361735,0.16949 0.2273763,0 0.359668,-0.16949 0.1333252,-0.1695 0.1333252,-0.46096 0,-0.29249 -0.1333252,-0.46199 -0.1322917,-0.16949 -0.359668,-0.16949 z m 0,-0.1695 q 0.324528,0 0.5188314,0.21807 0.1943034,0.21704 0.1943034,0.58291 0,0.36484 -0.1943034,0.58291 -0.1943034,0.21704 -0.5188314,0.21704 -0.3255615,0 -0.5208984,-0.21704 -0.1943033,-0.21704 -0.1943033,-0.58291 0,-0.36587 0.1943033,-0.58291 0.1953369,-0.21807 0.5208984,-0.21807 z"
         style="font-style:normal;font-variant:normal;font-weight:normal;font-stretch:normal;font-size:2.11666656px;font-family:sans-serif;-inkscape-font-specification:'sans-serif, Normal';font-variant-ligatures:normal;font-variant-caps:normal;font-variant-numeric:normal;font-feature-settings:normal;text-align:start;writing-mode:lr-tb;text-anchor:start;fill:#c00000;fill-opacity:1;stroke-width:0.26458332"
         id="path1110"
         inkscape:connector-curvature="0" />
      <path
         d="m 9.6420374,281.74115 h 0.2098063 v 0.93741 q 0,0.24805 0.089917,0.3576 0.089917,0.10852 0.2914553,0.10852 0.200504,0 0.290421,-0.10852 0.08992,-0.10955 0.08992,-0.3576 v -0.93741 h 0.209807 v 0.96325 q 0,0.30179 -0.149862,0.45579 -0.148828,0.15399 -0.440283,0.15399 -0.2924888,0 -0.4423505,-0.15399 -0.1488281,-0.154 -0.1488281,-0.45579 z"
         style="font-style:normal;font-variant:normal;font-weight:normal;font-stretch:normal;font-size:2.11666656px;font-family:sans-serif;-inkscape-font-specification:'sans-serif, Normal';font-variant-ligatures:normal;font-variant-caps:normal;font-variant-numeric:normal;font-feature-settings:normal;text-align:start;writing-mode:lr-tb;text-anchor:start;fill:#c00000;fill-opacity:1;stroke-width:0.26458332"
         id="path1112"
         inkscape:connector-curvature="0" />
      <path
         d="m 11.002161,281.74115 h 1.305347 v 0.1757 h -0.54777 v 1.36736 h -0.209807 v -1.36736 h -0.54777 z"
         style="font-style:normal;font-variant:normal;font-weight:normal;font-stretch:normal;font-size:2.11666656px;font-family:sans-serif;-inkscape-font-specification:'sans-serif, Normal';font-variant-ligatures:normal;font-variant-caps:normal;font-variant-numeric:normal;font-feature-settings:normal;text-align:start;writing-mode:lr-tb;text-anchor:start;fill:#c00000;fill-opacity:1;stroke-width:0.26458332"
         id="path1114"
         inkscape:connector-curvature="0" />
    </g>
    <rect
       ry="1.2797598"
       y="271.69458"
       x="0.8889783"
       height="9.9684839"
       width="18.690908"
       id="rect1139"
       style="opacity:1;fill:#17d47a;fill-opacity:1;stroke:none;stroke-width:0.2;stroke-miterlimit:14.80000019;stroke-dasharray:0.4, 0.20000000000000001;stroke-dashoffset:0.06;stroke-opacity:1" />
    <g
       aria-label="IN"
       style="font-style:normal;font-weight:normal;font-size:10.58333302px;line-height:1.25;font-family:sans-serif;letter-spacing:0px;word-spacing:0px;fill:#c00000;fill-opacity:1;stroke:none;stroke-width:0.26458332;stroke-opacity:1"
       id="text1143">
      <path
         d="m 9.138946,271.94415 h 0.2087727 v 1.54306 H 9.138946 Z"
         style="font-style:normal;font-variant:normal;font-weight:normal;font-stretch:normal;font-size:2.11666656px;font-family:sans-serif;-inkscape-font-specification:'sans-serif, Normal';font-variant-ligatures:normal;font-variant-caps:normal;font-variant-numeric:normal;font-feature-settings:normal;text-align:start;writing-mode:lr-tb;text-anchor:start;fill:#c00000;fill-opacity:1;stroke:none;stroke-width:0.26458332;stroke-opacity:1"
         id="path1145" />
      <path
         d="m 9.7631972,271.94415 h 0.2811198 l 0.684196,1.29088 v -1.29088 h 0.202572 v 1.54306 h -0.28112 l -0.6841962,-1.29087 v 1.29087 H 9.7631972 Z"
         style="font-style:normal;font-variant:normal;font-weight:normal;font-stretch:normal;font-size:2.11666656px;font-family:sans-serif;-inkscape-font-specification:'sans-serif, Normal';font-variant-ligatures:normal;font-variant-caps:normal;font-variant-numeric:normal;font-feature-settings:normal;text-align:start;writing-mode:lr-tb;text-anchor:start;fill:#c00000;fill-opacity:1;stroke:none;stroke-width:0.26458332;stroke-opacity:1"
         id="path1147" />
    </g>
    <g
       aria-label="X"
       style="font-style:normal;font-variant:normal;font-weight:normal;font-stretch:condensed;font-size:4.93888903px;line-height:1.25;font-family:'Arial Narrow';-inkscape-font-specification:'Arial Narrow, Condensed';font-variant-ligatures:normal;font-variant-caps:normal;font-variant-numeric:normal;font-feature-settings:normal;text-align:start;letter-spacing:0px;word-spacing:0px;writing-mode:lr-tb;text-anchor:start;fill:#929292;fill-opacity:1;stroke:none;stroke-width:0.26458332"
       id="text872">
      <path
         d="m 4.6552951,270.13025 1.1213786,-1.84244 -0.9887424,-1.69292 h 0.4557861 l 0.5281332,0.90675 q 0.1615749,0.27974 0.2315104,0.43408 0.094051,-0.1881 0.2290988,-0.40273 l 0.5860108,-0.9381 h 0.4147895 l -1.0176812,1.66639 1.0972629,1.86897 H 6.8401747 L 6.1094699,268.869 q -0.060289,-0.10611 -0.1254015,-0.23633 -0.098874,0.19292 -0.1398708,0.26527 l -0.7282932,1.23231 z"
         style="font-style:normal;font-variant:normal;font-weight:normal;font-stretch:condensed;font-size:4.93888903px;font-family:'Arial Narrow';-inkscape-font-specification:'Arial Narrow, Condensed';font-variant-ligatures:normal;font-variant-caps:normal;font-variant-numeric:normal;font-feature-settings:normal;text-align:start;writing-mode:lr-tb;text-anchor:start;fill:#929292;fill-opacity:1;stroke-width:0.26458332"
         id="path878" />
    </g>
    <g
       aria-label="Y"
       style="font-style:normal;font-variant:normal;font-weight:normal;font-stretch:condensed;font-size:4.93888903px;line-height:1.25;font-family:'Arial Narrow';-inkscape-font-specification:'Arial Narrow, Condensed';font-variant-ligatures:normal;font-variant-caps:normal;font-variant-numeric:normal;font-feature-settings:normal;text-align:start;letter-spacing:0px;word-spacing:0px;writing-mode:lr-tb;text-anchor:start;fill:#929292;fill-opacity:1;stroke:none;stroke-width:0.26458332"
       id="text876">
      <path
         d="m 15.05567,270.13025 v -1.49758 l -1.116556,-2.03778 h 0.467844 l 0.56913,1.06591 q 0.16881,0.31592 0.296623,0.59807 0.127813,-0.27733 0.315915,-0.62459 l 0.561895,-1.03939 h 0.44614 l -1.157552,2.03778 v 1.49758 z"
         style="font-style:normal;font-variant:normal;font-weight:normal;font-stretch:condensed;font-size:4.93888903px;font-family:'Arial Narrow';-inkscape-font-specification:'Arial Narrow, Condensed';font-variant-ligatures:normal;font-variant-caps:normal;font-variant-numeric:normal;font-feature-settings:normal;text-align:start;writing-mode:lr-tb;text-anchor:start;fill:#929292;fill-opacity:1;stroke-width:0.26458332"
         id="path882" />
    </g>
    <g
       aria-label="Sckitam"
       style="font-style:normal;font-variant:normal;font-weight:bold;font-stretch:normal;font-size:2.82222223px;line-height:1.25;font-family:Noteworthy;-inkscape-font-specification:'Noteworthy, Bold';font-variant-ligatures:normal;font-variant-caps:normal;font-variant-numeric:normal;font-feature-settings:normal;text-align:start;letter-spacing:0px;word-spacing:0px;writing-mode:lr-tb;text-anchor:start;display:inline;fill:#c00000;fill-opacity:1;stroke:none;stroke-width:0.26458332"
       id="text1153"
       transform="translate(-58.21981,-0.5281978)"
       inkscape:transform-center-x="0.055676004"
       inkscape:transform-center-y="1.3362241">
      <path
         d="m 65.579203,296.18327 q 0,0.21519 -0.250473,0.33161 -0.197555,0.0953 -0.440972,0.0953 -0.22225,0 -0.522111,-0.0988 -0.370417,-0.127 -0.370417,-0.29633 0,-0.0635 0.04586,-0.10936 0.04586,-0.0459 0.109361,-0.0459 0.09525,0 0.176389,0.0776 0.137584,0.11642 0.148167,0.127 0.123472,0.0706 0.4445,0.0706 0.28575,0 0.28575,-0.13052 0,-0.10936 -0.268111,-0.30339 -0.186972,-0.11995 -0.373945,-0.23989 -0.239888,-0.16228 -0.34925,-0.30692 -0.144638,-0.1905 -0.144638,-0.43744 0,-0.31045 0.1905,-0.55386 0.204611,-0.26811 0.508,-0.26811 0.261055,0 0.440972,0.14463 0.179916,0.14112 0.229305,0.39864 0.01058,0.0988 0.04233,0.29281 0.01411,0.0564 0.01411,0.0847 0,0.127 -0.04233,0.21519 -0.05292,0.11994 -0.165806,0.11994 -0.0635,0 -0.123472,-0.0564 -0.05644,-0.06 -0.05644,-0.12347 0,-0.0459 0.02117,-0.13406 0.02117,-0.0917 0.02117,-0.13758 0,-0.47625 -0.3175,-0.47625 -0.176389,0 -0.296334,0.15169 -0.119944,0.14817 -0.119944,0.32809 0,0.254 0.303389,0.49389 0.278694,0.18697 0.560916,0.37394 0.299862,0.21519 0.299862,0.41275 z"
         style="font-style:normal;font-variant:normal;font-weight:bold;font-stretch:normal;font-size:2.82222223px;font-family:Noteworthy;-inkscape-font-specification:'Noteworthy, Bold';font-variant-ligatures:normal;font-variant-caps:normal;font-variant-numeric:normal;font-feature-settings:normal;text-align:start;writing-mode:lr-tb;text-anchor:start;fill:#c00000;fill-opacity:1;stroke-width:0.26458332"
         id="path1159"
         inkscape:connector-curvature="0" />
      <path
         d="m 66.994723,296.13035 q 0,0.10936 -0.165805,0.25753 -0.148167,0.13758 -0.268111,0.17286 -0.116417,0.0353 -0.22225,0.0353 -0.278695,0 -0.437445,-0.17639 -0.155222,-0.17639 -0.155222,-0.45508 0,-0.27164 0.144639,-0.60678 0.172861,-0.40217 0.402167,-0.40217 0.127,0 0.306916,0.0988 0.1905,0.10936 0.22225,0.21872 0.02822,0.0953 0.02822,0.2152 0,0.10936 -0.04586,0.24694 -0.05644,0.17639 -0.141111,0.17639 -0.05997,0 -0.112889,-0.0353 -0.0635,-0.0388 -0.0635,-0.0953 0,-0.004 0.03175,-0.0811 0.01764,-0.0353 0.01764,-0.19402 0,-0.13053 -0.01058,-0.16934 -0.02117,-0.10936 -0.09878,-0.10936 -0.172861,0 -0.268111,0.29986 -0.07056,0.22225 -0.07056,0.44803 0,0.37747 0.239889,0.37747 0.09525,0 0.218723,-0.0988 0.112888,-0.0917 0.15875,-0.18698 0.05644,-0.11289 0.137583,-0.11289 0.05292,0 0.102305,0.0635 0.04939,0.06 0.04939,0.11289 z"
         style="font-style:normal;font-variant:normal;font-weight:bold;font-stretch:normal;font-size:2.82222223px;font-family:Noteworthy;-inkscape-font-specification:'Noteworthy, Bold';font-variant-ligatures:normal;font-variant-caps:normal;font-variant-numeric:normal;font-feature-settings:normal;text-align:start;writing-mode:lr-tb;text-anchor:start;fill:#c00000;fill-opacity:1;stroke-width:0.26458332"
         id="path1161"
         inkscape:connector-curvature="0" />
      <path
         d="m 68.559513,296.63835 q -0.134055,0.0988 -0.211666,0.0988 -0.102306,0 -0.296334,-0.21167 -0.137583,-0.14816 -0.271638,-0.29986 -0.07761,-0.0917 -0.246945,-0.25752 l -0.01058,0.007 v 0.31045 q 0,0.0282 0.02117,0.0847 0.02469,0.0529 0.02469,0.0847 0,0.0494 -0.05292,0.0847 -0.04939,0.0388 -0.102305,0.0388 -0.09172,0 -0.151695,-0.06 -0.05997,-0.06 -0.05997,-0.1517 v -0.46566 q 0,-0.0423 0.01058,-0.127 0.01411,-0.0882 0.01411,-0.13053 v -0.94897 q 0,-0.2152 -0.03175,-0.34572 -0.01411,-0.06 -0.01411,-0.0917 0,-0.067 0.08114,-0.11994 0.07056,-0.0494 0.141111,-0.0494 0.05292,0 0.112889,0.0423 0.0635,0.0388 0.0635,0.0882 0,0.0141 -0.02117,0.0988 -0.02117,0.0847 -0.02117,0.26105 0,0.0565 -0.01058,0.94192 0.01411,-0.0141 0.381,-0.34925 0.303388,-0.28222 0.356305,-0.28222 0.186972,0 0.179917,0.2293 v 0.0353 q -0.151695,0.0882 -0.391584,0.27869 -0.303388,0.23636 -0.303388,0.31398 0,0.007 0.1905,0.22225 0.179916,0.20461 0.225777,0.254 0.211667,0.22225 0.395111,0.30338 z"
         style="font-style:normal;font-variant:normal;font-weight:bold;font-stretch:normal;font-size:2.82222223px;font-family:Noteworthy;-inkscape-font-specification:'Noteworthy, Bold';font-variant-ligatures:normal;font-variant-caps:normal;font-variant-numeric:normal;font-feature-settings:normal;text-align:start;writing-mode:lr-tb;text-anchor:start;fill:#c00000;fill-opacity:1;stroke-width:0.26458332"
         id="path1163"
         inkscape:connector-curvature="0" />
      <path
         d="m 69.08427,294.67691 q 0,0.0776 -0.05292,0.127 -0.05292,0.0494 -0.130528,0.0494 -0.09172,0 -0.172861,-0.0635 -0.07761,-0.0635 -0.07761,-0.15522 0,-0.0776 0.05292,-0.127 0.05644,-0.0494 0.137584,-0.0494 0.09525,0 0.169333,0.0635 0.07408,0.06 0.07408,0.15522 z m -0.03175,0.49389 q 0,0.0635 -0.02822,0.17991 -0.02822,0.11642 -0.02822,0.17992 v 0.72672 q 0,0.067 0.0388,0.21167 -0.05292,0.0811 -0.116416,0.0811 -0.22225,0 -0.243417,-0.22225 -0.03528,-0.41275 -0.03528,-0.62089 0,-0.34925 0.02822,-0.58561 -0.0035,-0.0176 -0.0035,-0.0353 0,-0.0635 0.09878,-0.0635 0.08819,0 0.176389,0.0353 0.112889,0.0388 0.112889,0.11289 z"
         style="font-style:normal;font-variant:normal;font-weight:bold;font-stretch:normal;font-size:2.82222223px;font-family:Noteworthy;-inkscape-font-specification:'Noteworthy, Bold';font-variant-ligatures:normal;font-variant-caps:normal;font-variant-numeric:normal;font-feature-settings:normal;text-align:start;writing-mode:lr-tb;text-anchor:start;fill:#c00000;fill-opacity:1;stroke-width:0.26458332"
         id="path1165"
         inkscape:connector-curvature="0" />
      <path
         d="m 69.965774,295.26605 q 0,0.0953 -0.292806,0.13405 -0.0071,0.0776 -0.0071,0.35278 v 0.23283 q 0,0.0706 0.02117,0.20814 0.0247,0.13759 0.0247,0.20461 0,0.0564 -0.05645,0.10231 -0.05644,0.0423 -0.112889,0.0423 -0.08819,0 -0.148166,-0.15169 -0.04586,-0.11642 -0.04586,-0.22578 v -0.74789 q -0.162277,-0.0247 -0.186972,-0.0317 -0.09172,-0.0282 -0.09172,-0.0811 0,-0.0141 0.0071,-0.0317 0.09172,-0.13052 0.204611,-0.13052 0.0071,0 0.02117,0 0.01411,0.004 0.02117,0.004 0.07408,0 0.07056,-0.17286 v -0.25753 q -0.02117,-0.0388 -0.02117,-0.067 0,-0.0459 0.05292,-0.0811 0.05644,-0.0388 0.105833,-0.0388 0.07408,0 0.141111,0.0706 0.06703,0.067 0.06703,0.14464 0,0.0847 -0.02822,0.16933 -0.0247,0.0811 -0.02117,0.16933 v 0.0141 q 0.275167,0.0282 0.275167,0.16934 z"
         style="font-style:normal;font-variant:normal;font-weight:bold;font-stretch:normal;font-size:2.82222223px;font-family:Noteworthy;-inkscape-font-specification:'Noteworthy, Bold';font-variant-ligatures:normal;font-variant-caps:normal;font-variant-numeric:normal;font-feature-settings:normal;text-align:start;writing-mode:lr-tb;text-anchor:start;fill:#c00000;fill-opacity:1;stroke-width:0.26458332"
         id="path1167"
         inkscape:connector-curvature="0" />
      <path
         d="m 71.225852,295.92927 q 0,0.45508 -0.02822,0.64206 -0.01764,0.10936 -0.148167,0.10936 -0.197555,0 -0.176389,-0.19756 -0.176389,0.0847 -0.366889,0.0847 -0.183444,0 -0.34925,-0.0917 -0.197555,-0.10937 -0.197555,-0.2787 0,-0.1658 0.225778,-0.31044 0.204611,-0.13053 0.384527,-0.13053 h 0.299861 v -0.0847 q 0.0035,-0.37041 -0.218722,-0.37041 -0.278694,0 -0.278694,0.26105 0,0.0882 -0.09878,0.0882 -0.05997,0 -0.127,-0.0529 -0.0635,-0.0565 -0.0635,-0.11642 0,-0.19755 0.141111,-0.32455 0.141111,-0.127 0.338667,-0.127 0.663222,0 0.663222,0.89958 z m -0.356306,0.127 q 0,-0.0706 -0.105833,-0.0706 -0.440972,0 -0.440972,0.20814 0,0.11289 0.194028,0.11289 0.119944,0 0.225777,-0.067 0.127,-0.0741 0.127,-0.18344 z"
         style="font-style:normal;font-variant:normal;font-weight:bold;font-stretch:normal;font-size:2.82222223px;font-family:Noteworthy;-inkscape-font-specification:'Noteworthy, Bold';font-variant-ligatures:normal;font-variant-caps:normal;font-variant-numeric:normal;font-feature-settings:normal;text-align:start;writing-mode:lr-tb;text-anchor:start;fill:#c00000;fill-opacity:1;stroke-width:0.26458332"
         id="path1169"
         inkscape:connector-curvature="0" />
      <path
         d="m 73.285192,296.52194 q -0.119944,0.0741 -0.183444,0.0741 -0.04586,0 -0.141112,-0.0494 0,-0.0564 0.0035,-0.19403 0.0035,-0.12347 0.0035,-0.19402 0,-0.93839 -0.155222,-0.93839 -0.116417,0 -0.186972,0.28575 -0.05292,0.20814 -0.05292,0.38452 v 0.32456 q 0,0.0247 0.01411,0.0741 0.01764,0.0459 0.01764,0.0706 0,0.0564 -0.05997,0.1023 -0.05997,0.0423 -0.116417,0.0423 -0.05997,0 -0.119944,-0.06 -0.05997,-0.06 -0.05997,-0.11642 v -0.65617 q 0,-0.39864 -0.08819,-0.39864 -0.01411,0 -0.05997,0.067 -0.250473,0.33867 -0.250473,0.72672 0,0.0564 0.01411,0.16581 0.01411,0.10583 0.01411,0.15875 0,0.0705 -0.04586,0.11642 -0.04233,0.0459 -0.112889,0.0459 -0.08114,0 -0.130528,-0.0565 -0.01764,-0.0247 -0.04233,-0.1658 -0.02117,-0.13053 -0.02117,-0.17992 v -0.76906 q 0,-0.0847 0.04233,-0.22577 0.05292,-0.16934 0.112889,-0.16934 0.07056,0 0.127,0.0564 0.05645,0.0529 0.04939,0.12347 0.102306,-0.16933 0.264583,-0.16933 0.201084,0 0.328084,0.26811 0.06703,-0.15875 0.119944,-0.21872 0.08819,-0.10231 0.218722,-0.10231 0.130528,0 0.264584,0.13758 0.232833,0.23636 0.232833,0.80786 z"
         style="font-style:normal;font-variant:normal;font-weight:bold;font-stretch:normal;font-size:2.82222223px;font-family:Noteworthy;-inkscape-font-specification:'Noteworthy, Bold';font-variant-ligatures:normal;font-variant-caps:normal;font-variant-numeric:normal;font-feature-settings:normal;text-align:start;writing-mode:lr-tb;text-anchor:start;fill:#c00000;fill-opacity:1;stroke-width:0.26458332"
         id="path1171"
         inkscape:connector-curvature="0" />
    </g>
  </g>
  <g
     inkscape:groupmode="layer"
     id="layer2"
     inkscape:label="components"
     style="display:none">
    <circle
       style="display:inline;opacity:1;vector-effect:none;fill:#ff0000;fill-opacity:1;fill-rule:evenodd;stroke:none;stroke-width:1;stroke-linecap:butt;stroke-linejoin:miter;stroke-miterlimit:4;stroke-dasharray:none;stroke-dashoffset:0;stroke-opacity:1;paint-order:normal"
       id="path4954"
       cx="10.16"
       cy="26.083456"
       r="4"
       inkscape:label="angle" />
    <circle
       r="4"
       cy="63.766457"
       cx="10.16"
       id="circle4956"
       style="display:inline;opacity:1;vector-effect:none;fill:#00ff00;fill-opacity:1;fill-rule:evenodd;stroke:none;stroke-width:1;stroke-linecap:butt;stroke-linejoin:miter;stroke-miterlimit:4;stroke-dasharray:none;stroke-dashoffset:0;stroke-opacity:1;paint-order:normal"
       inkscape:label="CV" />
    <circle
       style="display:inline;opacity:1;vector-effect:none;fill:#0000ff;fill-opacity:1;fill-rule:evenodd;stroke:none;stroke-width:1;stroke-linecap:butt;stroke-linejoin:miter;stroke-miterlimit:4;stroke-dasharray:none;stroke-dashoffset:0;stroke-opacity:1;paint-order:normal"
       id="circle4958"
       cx="14.755144"
       cy="96.240318"
       r="4"
       inkscape:label="Out1" />
    <circle
       inkscape:label="IN2"
       style="display:inline;opacity:1;vector-effect:none;fill:#00ff00;fill-opacity:1;fill-rule:evenodd;stroke:none;stroke-width:1;stroke-linecap:butt;stroke-linejoin:miter;stroke-miterlimit:4;stroke-dasharray:none;stroke-dashoffset:0;stroke-opacity:1;paint-order:normal"
       id="circle1263"
       cx="5.4933438"
       cy="112.04563"
       r="4" />
    <circle
       r="4"
       cy="96.240318"
       cx="5.4933438"
       id="circle1265"
       style="display:inline;opacity:1;vector-effect:none;fill:#00ff00;fill-opacity:1;fill-rule:evenodd;stroke:none;stroke-width:1;stroke-linecap:butt;stroke-linejoin:miter;stroke-miterlimit:4;stroke-dasharray:none;stroke-dashoffset:0;stroke-opacity:1;paint-order:normal"
       inkscape:label="IN1">
      <title
         id="title836">IN1</title>
    </circle>
    <circle
       inkscape:label="Out2"
       r="4"
       cy="112.04563"
       cx="14.755144"
       id="circle1267"
       style="display:inline;opacity:1;vector-effect:none;fill:#0000ff;fill-opacity:1;fill-rule:evenodd;stroke:none;stroke-width:1;stroke-linecap:butt;stroke-linejoin:miter;stroke-miterlimit:4;stroke-dasharray:none;stroke-dashoffset:0;stroke-opacity:1;paint-order:normal" />
    <circle
       inkscape:label="amount"
       r="4"
       cy="46.594486"
       cx="10.16"
       id="circle1293"
       style="display:inline;opacity:1;vector-effect:none;fill:#ff0000;fill-opacity:1;fill-rule:evenodd;stroke:none;stroke-width:1;stroke-linecap:butt;stroke-linejoin:miter;stroke-miterlimit:4;stroke-dasharray:none;stroke-dashoffset:0;stroke-opacity:1;paint-order:normal" />
  </g>
</svg>
