<?xml version="1.0" encoding="UTF-8" standalone="no"?>
<svg
   xmlns:osb="http://www.openswatchbook.org/uri/2009/osb"
   xmlns:dc="http://purl.org/dc/elements/1.1/"
   xmlns:cc="http://creativecommons.org/ns#"
   xmlns:rdf="http://www.w3.org/1999/02/22-rdf-syntax-ns#"
   xmlns:svg="http://www.w3.org/2000/svg"
   xmlns="http://www.w3.org/2000/svg"
   xmlns:sodipodi="http://sodipodi.sourceforge.net/DTD/sodipodi-0.dtd"
   xmlns:inkscape="http://www.inkscape.org/namespaces/inkscape"
   width="30.48mm"
   height="128.5mm"
   viewBox="0 0 30.480002 128.50002"
   version="1.1"
   id="svg8"
   inkscape:version="1.0 (4035a4f, 2020-05-01)"
   sodipodi:docname="WDelay.svg">
  <defs
     id="defs2">
    <linearGradient
       id="linearGradient991"
       osb:paint="solid">
      <stop
         style="stop-color:#000000;stop-opacity:1;"
         offset="0"
         id="stop989" />
    </linearGradient>
    <marker
       inkscape:stockid="Arrow2Lend"
       orient="auto"
       refY="0"
       refX="0"
       id="marker13500"
       style="overflow:visible"
       inkscape:isstock="true">
      <path
         inkscape:connector-curvature="0"
         id="path13498"
         style="fill:#000000;fill-opacity:1;fill-rule:evenodd;stroke:#000000;stroke-width:0.625;stroke-linejoin:round;stroke-opacity:1"
         d="M 8.7185878,4.0337352 -2.2072895,0.01601326 8.7185884,-4.0017078 c -1.7454984,2.3720609 -1.7354408,5.6174519 -6e-7,8.035443 z"
         transform="matrix(-1.1,0,0,-1.1,-1.1,0)" />
    </marker>
    <marker
       inkscape:stockid="Arrow2Lend"
       orient="auto"
       refY="0"
       refX="0"
       id="marker10820"
       style="overflow:visible"
       inkscape:isstock="true">
      <path
         inkscape:connector-curvature="0"
         id="path10818"
         style="fill:#000000;fill-opacity:1;fill-rule:evenodd;stroke:#000000;stroke-width:0.625;stroke-linejoin:round;stroke-opacity:1"
         d="M 8.7185878,4.0337352 -2.2072895,0.01601326 8.7185884,-4.0017078 c -1.7454984,2.3720609 -1.7354408,5.6174519 -6e-7,8.035443 z"
         transform="matrix(-1.1,0,0,-1.1,-1.1,0)" />
    </marker>
    <marker
       inkscape:stockid="Arrow2Lend"
       orient="auto"
       refY="0.0"
       refX="0.0"
       id="Arrow2Lend"
       style="overflow:visible;"
       inkscape:isstock="true">
      <path
         id="path908"
         style="fill-rule:evenodd;stroke-width:0.625;stroke-linejoin:round;stroke:#000000;stroke-opacity:1;fill:#000000;fill-opacity:1"
         d="M 8.7185878,4.0337352 L -2.2072895,0.016013256 L 8.7185884,-4.0017078 C 6.9730900,-1.6296469 6.9831476,1.6157441 8.7185878,4.0337352 z "
         transform="scale(1.1) rotate(180) translate(1,0)" />
    </marker>
    <marker
       inkscape:isstock="true"
       style="overflow:visible"
       id="Arrow2Lend-2"
       refX="0"
       refY="0"
       orient="auto"
       inkscape:stockid="Arrow2Lend"
       inkscape:collect="always">
      <path
         transform="matrix(-1.1,0,0,-1.1,-1.1,0)"
         d="M 8.7185878,4.0337352 -2.2072895,0.01601326 8.7185884,-4.0017078 c -1.7454984,2.3720609 -1.7354408,5.6174519 -6e-7,8.035443 z"
         style="fill:#000000;fill-opacity:1;fill-rule:evenodd;stroke:#000000;stroke-width:0.625;stroke-linejoin:round;stroke-opacity:1"
         id="path908-2"
         inkscape:connector-curvature="0" />
    </marker>
  </defs>
  <sodipodi:namedview
     id="base"
     pagecolor="#ffffff"
     bordercolor="#666666"
     borderopacity="1.0"
     inkscape:pageopacity="0.0"
     inkscape:pageshadow="2"
     inkscape:zoom="2.8"
     inkscape:cx="74.477739"
     inkscape:cy="171.72425"
     inkscape:document-units="mm"
     inkscape:current-layer="layer1"
     showgrid="false"
     units="mm"
     inkscape:snap-bbox="true"
     inkscape:snap-page="true"
     inkscape:bbox-nodes="false"
     inkscape:snap-bbox-edge-midpoints="false"
     inkscape:window-width="1565"
     inkscape:window-height="1009"
     inkscape:window-x="355"
     inkscape:window-y="23"
     inkscape:window-maximized="0"
     inkscape:snap-bbox-midpoints="true"
     inkscape:snap-nodes="false"
     inkscape:document-rotation="0" />
  <metadata
     id="metadata5">
    <rdf:RDF>
      <cc:Work
         rdf:about="">
        <dc:format>image/svg+xml</dc:format>
        <dc:type
           rdf:resource="http://purl.org/dc/dcmitype/StillImage" />
        <dc:title />
      </cc:Work>
    </rdf:RDF>
  </metadata>
  <g
     inkscape:label="Layer 1"
     inkscape:groupmode="layer"
     id="layer1"
     transform="translate(0,-168.49998)"
     style="display:inline;opacity:1;mix-blend-mode:normal">
    <rect
       style="display:inline;opacity:1;vector-effect:none;fill:#e6e6e6;fill-opacity:1;fill-rule:evenodd;stroke:none;stroke-width:0.649358;stroke-linecap:butt;stroke-linejoin:miter;stroke-miterlimit:4;stroke-dasharray:none;stroke-dashoffset:0;stroke-opacity:1;paint-order:normal"
       id="rect420"
       width="30.48"
       height="128.5"
       x="0"
       y="168.49997" />
    <g
       aria-label="Sckitam"
       style="font-style:normal;font-variant:normal;font-weight:bold;font-stretch:normal;font-size:2.82222px;line-height:1.25;font-family:Noteworthy;-inkscape-font-specification:'Noteworthy, Bold';font-variant-ligatures:normal;font-variant-caps:normal;font-variant-numeric:normal;font-feature-settings:normal;text-align:start;letter-spacing:0px;word-spacing:0px;writing-mode:lr-tb;text-anchor:start;display:inline;fill:#c00000;fill-opacity:1;stroke:none;stroke-width:0.264583"
       id="text1153"
       transform="translate(-53.400211,-1.0831715)">
      <path
         d="m 65.579203,296.18327 q 0,0.21519 -0.250473,0.33161 -0.197555,0.0953 -0.440972,0.0953 -0.22225,0 -0.522111,-0.0988 -0.370417,-0.127 -0.370417,-0.29633 0,-0.0635 0.04586,-0.10936 0.04586,-0.0459 0.109361,-0.0459 0.09525,0 0.176389,0.0776 0.137584,0.11642 0.148167,0.127 0.123472,0.0706 0.4445,0.0706 0.28575,0 0.28575,-0.13052 0,-0.10936 -0.268111,-0.30339 -0.186972,-0.11995 -0.373945,-0.23989 -0.239888,-0.16228 -0.34925,-0.30692 -0.144638,-0.1905 -0.144638,-0.43744 0,-0.31045 0.1905,-0.55386 0.204611,-0.26811 0.508,-0.26811 0.261055,0 0.440972,0.14463 0.179916,0.14112 0.229305,0.39864 0.01058,0.0988 0.04233,0.29281 0.01411,0.0564 0.01411,0.0847 0,0.127 -0.04233,0.21519 -0.05292,0.11994 -0.165806,0.11994 -0.0635,0 -0.123472,-0.0564 -0.05644,-0.06 -0.05644,-0.12347 0,-0.0459 0.02117,-0.13406 0.02117,-0.0917 0.02117,-0.13758 0,-0.47625 -0.3175,-0.47625 -0.176389,0 -0.296334,0.15169 -0.119944,0.14817 -0.119944,0.32809 0,0.254 0.303389,0.49389 0.278694,0.18697 0.560916,0.37394 0.299862,0.21519 0.299862,0.41275 z"
         style="font-style:normal;font-variant:normal;font-weight:bold;font-stretch:normal;font-size:2.82222px;font-family:Noteworthy;-inkscape-font-specification:'Noteworthy, Bold';font-variant-ligatures:normal;font-variant-caps:normal;font-variant-numeric:normal;font-feature-settings:normal;text-align:start;writing-mode:lr-tb;text-anchor:start;fill:#c00000;fill-opacity:1;stroke-width:0.264583"
         id="path1159"
         inkscape:connector-curvature="0" />
      <path
         d="m 66.994723,296.13035 q 0,0.10936 -0.165805,0.25753 -0.148167,0.13758 -0.268111,0.17286 -0.116417,0.0353 -0.22225,0.0353 -0.278695,0 -0.437445,-0.17639 -0.155222,-0.17639 -0.155222,-0.45508 0,-0.27164 0.144639,-0.60678 0.172861,-0.40217 0.402167,-0.40217 0.127,0 0.306916,0.0988 0.1905,0.10936 0.22225,0.21872 0.02822,0.0953 0.02822,0.2152 0,0.10936 -0.04586,0.24694 -0.05644,0.17639 -0.141111,0.17639 -0.05997,0 -0.112889,-0.0353 -0.0635,-0.0388 -0.0635,-0.0953 0,-0.004 0.03175,-0.0811 0.01764,-0.0353 0.01764,-0.19402 0,-0.13053 -0.01058,-0.16934 -0.02117,-0.10936 -0.09878,-0.10936 -0.172861,0 -0.268111,0.29986 -0.07056,0.22225 -0.07056,0.44803 0,0.37747 0.239889,0.37747 0.09525,0 0.218723,-0.0988 0.112888,-0.0917 0.15875,-0.18698 0.05644,-0.11289 0.137583,-0.11289 0.05292,0 0.102305,0.0635 0.04939,0.06 0.04939,0.11289 z"
         style="font-style:normal;font-variant:normal;font-weight:bold;font-stretch:normal;font-size:2.82222px;font-family:Noteworthy;-inkscape-font-specification:'Noteworthy, Bold';font-variant-ligatures:normal;font-variant-caps:normal;font-variant-numeric:normal;font-feature-settings:normal;text-align:start;writing-mode:lr-tb;text-anchor:start;fill:#c00000;fill-opacity:1;stroke-width:0.264583"
         id="path1161"
         inkscape:connector-curvature="0" />
      <path
         d="m 68.559513,296.63835 q -0.134055,0.0988 -0.211666,0.0988 -0.102306,0 -0.296334,-0.21167 -0.137583,-0.14816 -0.271638,-0.29986 -0.07761,-0.0917 -0.246945,-0.25752 l -0.01058,0.007 v 0.31045 q 0,0.0282 0.02117,0.0847 0.02469,0.0529 0.02469,0.0847 0,0.0494 -0.05292,0.0847 -0.04939,0.0388 -0.102305,0.0388 -0.09172,0 -0.151695,-0.06 -0.05997,-0.06 -0.05997,-0.1517 v -0.46566 q 0,-0.0423 0.01058,-0.127 0.01411,-0.0882 0.01411,-0.13053 v -0.94897 q 0,-0.2152 -0.03175,-0.34572 -0.01411,-0.06 -0.01411,-0.0917 0,-0.067 0.08114,-0.11994 0.07056,-0.0494 0.141111,-0.0494 0.05292,0 0.112889,0.0423 0.0635,0.0388 0.0635,0.0882 0,0.0141 -0.02117,0.0988 -0.02117,0.0847 -0.02117,0.26105 0,0.0565 -0.01058,0.94192 0.01411,-0.0141 0.381,-0.34925 0.303388,-0.28222 0.356305,-0.28222 0.186972,0 0.179917,0.2293 v 0.0353 q -0.151695,0.0882 -0.391584,0.27869 -0.303388,0.23636 -0.303388,0.31398 0,0.007 0.1905,0.22225 0.179916,0.20461 0.225777,0.254 0.211667,0.22225 0.395111,0.30338 z"
         style="font-style:normal;font-variant:normal;font-weight:bold;font-stretch:normal;font-size:2.82222px;font-family:Noteworthy;-inkscape-font-specification:'Noteworthy, Bold';font-variant-ligatures:normal;font-variant-caps:normal;font-variant-numeric:normal;font-feature-settings:normal;text-align:start;writing-mode:lr-tb;text-anchor:start;fill:#c00000;fill-opacity:1;stroke-width:0.264583"
         id="path1163"
         inkscape:connector-curvature="0" />
      <path
         d="m 69.08427,294.67691 q 0,0.0776 -0.05292,0.127 -0.05292,0.0494 -0.130528,0.0494 -0.09172,0 -0.172861,-0.0635 -0.07761,-0.0635 -0.07761,-0.15522 0,-0.0776 0.05292,-0.127 0.05644,-0.0494 0.137584,-0.0494 0.09525,0 0.169333,0.0635 0.07408,0.06 0.07408,0.15522 z m -0.03175,0.49389 q 0,0.0635 -0.02822,0.17991 -0.02822,0.11642 -0.02822,0.17992 v 0.72672 q 0,0.067 0.0388,0.21167 -0.05292,0.0811 -0.116416,0.0811 -0.22225,0 -0.243417,-0.22225 -0.03528,-0.41275 -0.03528,-0.62089 0,-0.34925 0.02822,-0.58561 -0.0035,-0.0176 -0.0035,-0.0353 0,-0.0635 0.09878,-0.0635 0.08819,0 0.176389,0.0353 0.112889,0.0388 0.112889,0.11289 z"
         style="font-style:normal;font-variant:normal;font-weight:bold;font-stretch:normal;font-size:2.82222px;font-family:Noteworthy;-inkscape-font-specification:'Noteworthy, Bold';font-variant-ligatures:normal;font-variant-caps:normal;font-variant-numeric:normal;font-feature-settings:normal;text-align:start;writing-mode:lr-tb;text-anchor:start;fill:#c00000;fill-opacity:1;stroke-width:0.264583"
         id="path1165"
         inkscape:connector-curvature="0" />
      <path
         d="m 69.965774,295.26605 q 0,0.0953 -0.292806,0.13405 -0.0071,0.0776 -0.0071,0.35278 v 0.23283 q 0,0.0706 0.02117,0.20814 0.0247,0.13759 0.0247,0.20461 0,0.0564 -0.05645,0.10231 -0.05644,0.0423 -0.112889,0.0423 -0.08819,0 -0.148166,-0.15169 -0.04586,-0.11642 -0.04586,-0.22578 v -0.74789 q -0.162277,-0.0247 -0.186972,-0.0317 -0.09172,-0.0282 -0.09172,-0.0811 0,-0.0141 0.0071,-0.0317 0.09172,-0.13052 0.204611,-0.13052 0.0071,0 0.02117,0 0.01411,0.004 0.02117,0.004 0.07408,0 0.07056,-0.17286 v -0.25753 q -0.02117,-0.0388 -0.02117,-0.067 0,-0.0459 0.05292,-0.0811 0.05644,-0.0388 0.105833,-0.0388 0.07408,0 0.141111,0.0706 0.06703,0.067 0.06703,0.14464 0,0.0847 -0.02822,0.16933 -0.0247,0.0811 -0.02117,0.16933 v 0.0141 q 0.275167,0.0282 0.275167,0.16934 z"
         style="font-style:normal;font-variant:normal;font-weight:bold;font-stretch:normal;font-size:2.82222px;font-family:Noteworthy;-inkscape-font-specification:'Noteworthy, Bold';font-variant-ligatures:normal;font-variant-caps:normal;font-variant-numeric:normal;font-feature-settings:normal;text-align:start;writing-mode:lr-tb;text-anchor:start;fill:#c00000;fill-opacity:1;stroke-width:0.264583"
         id="path1167"
         inkscape:connector-curvature="0" />
      <path
         d="m 71.225852,295.92927 q 0,0.45508 -0.02822,0.64206 -0.01764,0.10936 -0.148167,0.10936 -0.197555,0 -0.176389,-0.19756 -0.176389,0.0847 -0.366889,0.0847 -0.183444,0 -0.34925,-0.0917 -0.197555,-0.10937 -0.197555,-0.2787 0,-0.1658 0.225778,-0.31044 0.204611,-0.13053 0.384527,-0.13053 h 0.299861 v -0.0847 q 0.0035,-0.37041 -0.218722,-0.37041 -0.278694,0 -0.278694,0.26105 0,0.0882 -0.09878,0.0882 -0.05997,0 -0.127,-0.0529 -0.0635,-0.0565 -0.0635,-0.11642 0,-0.19755 0.141111,-0.32455 0.141111,-0.127 0.338667,-0.127 0.663222,0 0.663222,0.89958 z m -0.356306,0.127 q 0,-0.0706 -0.105833,-0.0706 -0.440972,0 -0.440972,0.20814 0,0.11289 0.194028,0.11289 0.119944,0 0.225777,-0.067 0.127,-0.0741 0.127,-0.18344 z"
         style="font-style:normal;font-variant:normal;font-weight:bold;font-stretch:normal;font-size:2.82222px;font-family:Noteworthy;-inkscape-font-specification:'Noteworthy, Bold';font-variant-ligatures:normal;font-variant-caps:normal;font-variant-numeric:normal;font-feature-settings:normal;text-align:start;writing-mode:lr-tb;text-anchor:start;fill:#c00000;fill-opacity:1;stroke-width:0.264583"
         id="path1169"
         inkscape:connector-curvature="0" />
      <path
         d="m 73.285192,296.52194 q -0.119944,0.0741 -0.183444,0.0741 -0.04586,0 -0.141112,-0.0494 0,-0.0564 0.0035,-0.19403 0.0035,-0.12347 0.0035,-0.19402 0,-0.93839 -0.155222,-0.93839 -0.116417,0 -0.186972,0.28575 -0.05292,0.20814 -0.05292,0.38452 v 0.32456 q 0,0.0247 0.01411,0.0741 0.01764,0.0459 0.01764,0.0706 0,0.0564 -0.05997,0.1023 -0.05997,0.0423 -0.116417,0.0423 -0.05997,0 -0.119944,-0.06 -0.05997,-0.06 -0.05997,-0.11642 v -0.65617 q 0,-0.39864 -0.08819,-0.39864 -0.01411,0 -0.05997,0.067 -0.250473,0.33867 -0.250473,0.72672 0,0.0564 0.01411,0.16581 0.01411,0.10583 0.01411,0.15875 0,0.0705 -0.04586,0.11642 -0.04233,0.0459 -0.112889,0.0459 -0.08114,0 -0.130528,-0.0565 -0.01764,-0.0247 -0.04233,-0.1658 -0.02117,-0.13053 -0.02117,-0.17992 v -0.76906 q 0,-0.0847 0.04233,-0.22577 0.05292,-0.16934 0.112889,-0.16934 0.07056,0 0.127,0.0564 0.05645,0.0529 0.04939,0.12347 0.102306,-0.16933 0.264583,-0.16933 0.201084,0 0.328084,0.26811 0.06703,-0.15875 0.119944,-0.21872 0.08819,-0.10231 0.218722,-0.10231 0.130528,0 0.264584,0.13758 0.232833,0.23636 0.232833,0.80786 z"
         style="font-style:normal;font-variant:normal;font-weight:bold;font-stretch:normal;font-size:2.82222px;font-family:Noteworthy;-inkscape-font-specification:'Noteworthy, Bold';font-variant-ligatures:normal;font-variant-caps:normal;font-variant-numeric:normal;font-feature-settings:normal;text-align:start;writing-mode:lr-tb;text-anchor:start;fill:#c00000;fill-opacity:1;stroke-width:0.264583"
         id="path1171"
         inkscape:connector-curvature="0" />
    </g>
    <rect
       style="display:inline;opacity:1;fill:#7a7ace;fill-opacity:1;stroke:none;stroke-width:0.152876;stroke-miterlimit:14.8;stroke-dasharray:0.305752, 0.152876;stroke-dashoffset:0.0367753;stroke-opacity:1"
       id="rect1102"
       width="10.234655"
       height="10.636658"
       x="17.614307"
       y="246.02403"
       ry="1.3655403" />
    <rect
       y="263.09933"
       x="9.3730917"
       height="7.5595236"
       width="12.284225"
       id="rect910"
       style="fill:none;stroke:#000000;stroke-width:0.264583;stroke-opacity:1" />
    <rect
       ry="1.3655403"
       y="246.02403"
       x="2.5031912"
       height="10.636658"
       width="10.234655"
       id="rect37079"
       style="display:inline;opacity:1;fill:#17d479;fill-opacity:1;stroke:none;stroke-width:0.152876;stroke-miterlimit:14.8;stroke-dasharray:0.305752, 0.152876;stroke-dashoffset:0.0367753;stroke-opacity:1" />
    <rect
       style="display:inline;opacity:1;fill:#17d479;fill-opacity:1;stroke:none;stroke-width:0.152876;stroke-miterlimit:14.8;stroke-dasharray:0.305752, 0.152876;stroke-dashoffset:0.0367753;stroke-opacity:1"
       id="rect37714"
       width="10.234655"
       height="10.636658"
       x="17.832535"
       y="275.64099"
       ry="1.3655403" />
    <g
       style="font-style:normal;font-variant:normal;font-weight:normal;font-stretch:normal;font-size:4.23333px;line-height:1.25;font-family:'Arial Narrow';-inkscape-font-specification:'Arial Narrow Normal';font-variant-ligatures:normal;font-variant-caps:normal;font-variant-numeric:normal;font-variant-east-asian:normal;word-spacing:0px;stroke-width:0.264583"
       id="text37724"
       aria-label="z"
       transform="translate(0,6.879167)">
      <path
         id="path1028"
         style="font-style:normal;font-variant:normal;font-weight:normal;font-stretch:normal;font-size:4.23333px;font-family:'Arial Narrow';-inkscape-font-specification:'Arial Narrow Normal';font-variant-ligatures:normal;font-variant-caps:normal;font-variant-numeric:normal;font-variant-east-asian:normal;stroke-width:0.264583"
         d="m 14.718354,261.09756 v -0.30179 l 1.147215,-1.60403 q -0.19637,0.0124 -0.345198,0.0124 h -0.733805 v -0.30179 h 1.471744 v 0.24598 l -0.97565,1.3932 -0.188102,0.25424 q 0.204638,-0.0186 0.384472,-0.0186 h 0.833023 v 0.32039 z" />
    </g>
    <g
       style="font-style:normal;font-variant:normal;font-weight:normal;font-stretch:normal;font-size:3.52778px;line-height:1.25;font-family:'Arial Narrow';-inkscape-font-specification:'Arial Narrow Normal';font-variant-ligatures:normal;font-variant-caps:normal;font-variant-numeric:normal;font-variant-east-asian:normal;word-spacing:0px;stroke-width:0.264583"
       id="text37728"
       aria-label="+"
       transform="translate(0,6.879167)">
      <path
         id="path1039"
         style="font-style:normal;font-variant:normal;font-weight:normal;font-stretch:normal;font-size:3.52778px;font-family:'Arial Narrow';-inkscape-font-specification:'Arial Narrow Normal';font-variant-ligatures:normal;font-variant-caps:normal;font-variant-numeric:normal;font-variant-east-asian:normal;stroke-width:0.264583"
         d="m 5.5962959,266.7315 v -0.69247 H 5.0330225 v -0.28939 h 0.5632734 v -0.68729 h 0.2411569 v 0.68729 h 0.5632734 v 0.28939 H 5.8374528 v 0.69247 z" />
    </g>
    <g
       style="font-style:normal;font-variant:normal;font-weight:normal;font-stretch:normal;font-size:4.23333px;line-height:1.25;font-family:'Arial Narrow';-inkscape-font-specification:'Arial Narrow Normal';font-variant-ligatures:normal;font-variant-caps:normal;font-variant-numeric:normal;font-variant-east-asian:normal;word-spacing:0px;stroke-width:0.264583"
       id="text37732"
       aria-label="-"
       transform="translate(0,6.879167)">
      <path
         id="path1036"
         style="font-style:normal;font-variant:normal;font-weight:normal;font-stretch:normal;font-size:4.23333px;font-family:'Arial Narrow';-inkscape-font-specification:'Arial Narrow Normal';font-variant-ligatures:normal;font-variant-caps:normal;font-variant-numeric:normal;font-variant-east-asian:normal;stroke-width:0.264583"
         d="m 5.3318426,268.01988 v -0.37414 h 0.9363761 v 0.37414 z" />
    </g>
    <g
       inkscape:transform-center-y="-13.701639"
       inkscape:transform-center-x="-34.868309"
       style="font-style:normal;font-variant:normal;font-weight:normal;font-stretch:normal;font-size:2.82222px;line-height:1.25;font-family:'Arial Narrow';-inkscape-font-specification:'Arial Narrow Normal';font-variant-ligatures:normal;font-variant-caps:normal;font-variant-numeric:normal;font-variant-east-asian:normal;word-spacing:0px;stroke-width:0.264583"
       id="text37736"
       aria-label="-x"
       transform="translate(0,6.879167)">
      <path
         id="path1031"
         style="font-style:normal;font-variant:normal;font-weight:normal;font-stretch:normal;font-size:2.82222px;font-family:'Arial Narrow';-inkscape-font-specification:'Arial Narrow Normal';font-variant-ligatures:normal;font-variant-caps:normal;font-variant-numeric:normal;font-variant-east-asian:normal;stroke-width:0.264583"
         d="m 16.892973,258.87245 v -0.24942 h 0.624251 v 0.24942 z" />
      <path
         id="path1033"
         style="font-style:normal;font-variant:normal;font-weight:normal;font-stretch:normal;font-size:2.82222px;font-family:'Arial Narrow';-inkscape-font-specification:'Arial Narrow Normal';font-variant-ligatures:normal;font-variant-caps:normal;font-variant-numeric:normal;font-variant-east-asian:normal;stroke-width:0.264583"
         d="m 17.608174,259.47879 0.438216,-0.76068 -0.405143,-0.7028 h 0.253559 l 0.184657,0.34314 q 0.05099,0.0951 0.08406,0.16398 0.05099,-0.0937 0.09095,-0.16123 l 0.202572,-0.34589 h 0.242534 l -0.414789,0.68902 0.446484,0.77446 H 18.48185 l -0.246669,-0.45475 -0.06477,-0.12265 -0.31557,0.5774 z" />
    </g>
    <g
       style="font-style:normal;font-variant:normal;font-weight:normal;font-stretch:normal;font-size:4.23333px;line-height:1.25;font-family:'Arial Narrow';-inkscape-font-specification:'Arial Narrow Normal';font-variant-ligatures:normal;font-variant-caps:normal;font-variant-numeric:normal;font-variant-east-asian:normal;word-spacing:0px;fill:#838383;fill-opacity:1;stroke:none;stroke-width:0.264583;stroke-opacity:1"
       id="text37740"
       aria-label="In"
       transform="translate(0,6.879167)">
      <path
         id="path1016"
         style="font-style:normal;font-variant:normal;font-weight:normal;font-stretch:normal;font-size:4.23333px;font-family:'Arial Narrow';-inkscape-font-specification:'Arial Narrow Normal';font-variant-ligatures:normal;font-variant-caps:normal;font-variant-numeric:normal;font-variant-east-asian:normal;fill:#838383;fill-opacity:1;stroke:none;stroke-width:0.264583;stroke-opacity:1"
         d="m 6.4588336,253.67677 v -3.0303 h 0.3286618 v 3.0303 z" />
      <path
         id="path1018"
         style="font-style:normal;font-variant:normal;font-weight:normal;font-stretch:normal;font-size:4.23333px;font-family:'Arial Narrow';-inkscape-font-specification:'Arial Narrow Normal';font-variant-ligatures:normal;font-variant-caps:normal;font-variant-numeric:normal;font-variant-east-asian:normal;fill:#838383;fill-opacity:1;stroke:none;stroke-width:0.264583;stroke-opacity:1"
         d="m 7.3187287,253.67677 v -2.19521 h 0.2749184 v 0.31213 q 0.099219,-0.18191 0.2418455,-0.27079 0.1446939,-0.0909 0.3307289,-0.0909 0.1446939,0 0.2666501,0.0579 0.1240234,0.0558 0.1984374,0.14883 0.076481,0.091 0.113688,0.23771 0.037207,0.14676 0.037207,0.45062 v 1.34978 H 8.4762798 v -1.33531 q 0,-0.24185 -0.041341,-0.35347 -0.041341,-0.11162 -0.1302245,-0.17157 -0.086816,-0.062 -0.2025714,-0.062 -0.2191079,0 -0.3493324,0.1633 -0.1302245,0.1633 -0.1302245,0.56017 v 1.19889 z" />
    </g>
    <g
       style="font-style:normal;font-variant:normal;font-weight:normal;font-stretch:normal;font-size:4.23333px;line-height:1.25;font-family:'Arial Narrow';-inkscape-font-specification:'Arial Narrow Normal';font-variant-ligatures:normal;font-variant-caps:normal;font-variant-numeric:normal;font-variant-east-asian:normal;word-spacing:0px;fill:#838383;fill-opacity:1;stroke:none;stroke-width:0.264583;stroke-opacity:1"
       id="text37748"
       aria-label="Out"
       transform="translate(0,6.879167)">
      <path
         id="path1021"
         style="font-style:normal;font-variant:normal;font-weight:normal;font-stretch:normal;font-size:4.23333px;font-family:'Arial Narrow';-inkscape-font-specification:'Arial Narrow Normal';font-variant-ligatures:normal;font-variant-caps:normal;font-variant-numeric:normal;font-variant-east-asian:normal;fill:#838383;fill-opacity:1;stroke:none;stroke-width:0.264583;stroke-opacity:1"
         d="m 20.027928,251.9174 q 0,-0.77514 0.341064,-1.19062 0.341064,-0.41755 0.84956,-0.41755 0.328662,0 0.599446,0.18604 0.270784,0.18603 0.42788,0.54157 0.159164,0.35346 0.159164,0.84336 0,0.67386 -0.305924,1.0976 -0.336931,0.46716 -0.882633,0.46716 -0.549837,0 -0.8847,-0.47956 -0.303857,-0.43408 -0.303857,-1.048 z m 0.338997,0.006 q 0,0.56018 0.24598,0.87023 0.248046,0.308 0.601513,0.308 0.361734,0 0.605647,-0.31213 0.24598,-0.31213 0.24598,-0.91777 0,-0.39068 -0.126091,-0.69867 -0.09715,-0.23564 -0.293522,-0.3762 -0.194303,-0.14263 -0.425813,-0.14263 -0.37207,0 -0.613916,0.31006 -0.239778,0.31006 -0.239778,0.95911 z" />
      <path
         id="path1023"
         style="font-style:normal;font-variant:normal;font-weight:normal;font-stretch:normal;font-size:4.23333px;font-family:'Arial Narrow';-inkscape-font-specification:'Arial Narrow Normal';font-variant-ligatures:normal;font-variant-caps:normal;font-variant-numeric:normal;font-variant-east-asian:normal;fill:#838383;fill-opacity:1;stroke:none;stroke-width:0.264583;stroke-opacity:1"
         d="m 23.959468,253.39328 v -0.32246 q -0.10542,0.18603 -0.248047,0.27905 -0.142627,0.093 -0.322461,0.093 -0.212907,0 -0.363802,-0.11369 -0.150895,-0.11575 -0.202571,-0.29145 -0.04961,-0.1757 -0.04961,-0.47956 v -1.36012 h 0.303857 v 1.21749 q 0,0.339 0.03307,0.45475 0.03514,0.11369 0.12609,0.18397 0.09302,0.0682 0.21084,0.0682 0.219108,0 0.359667,-0.17984 0.11989,-0.15503 0.11989,-0.56844 v -1.17615 h 0.305924 v 2.19521 z" />
      <path
         id="path1025"
         style="font-style:normal;font-variant:normal;font-weight:normal;font-stretch:normal;font-size:4.23333px;font-family:'Arial Narrow';-inkscape-font-specification:'Arial Narrow Normal';font-variant-ligatures:normal;font-variant-caps:normal;font-variant-numeric:normal;font-variant-east-asian:normal;fill:#838383;fill-opacity:1;stroke:none;stroke-width:0.264583;stroke-opacity:1"
         d="m 25.394004,253.06048 0.04134,0.32867 q -0.12609,0.0331 -0.227376,0.0331 -0.159163,0 -0.256315,-0.062 -0.09715,-0.0641 -0.134359,-0.17364 -0.03514,-0.10955 -0.03514,-0.43614 v -1.26298 h -0.223242 v -0.28938 h 0.223242 v -0.54364 l 0.303857,-0.22324 v 0.76688 h 0.307991 v 0.28938 h -0.307991 v 1.28365 q 0,0.17776 0.02687,0.22944 0.03927,0.0744 0.146761,0.0744 0.05168,0 0.134359,-0.0145 z" />
    </g>
    <g
       style="font-style:normal;font-variant:normal;font-weight:normal;font-stretch:normal;font-size:4.23333px;line-height:1.25;font-family:'Arial Narrow';-inkscape-font-specification:'Arial Narrow Normal';font-variant-ligatures:normal;font-variant-caps:normal;font-variant-numeric:normal;font-variant-east-asian:normal;word-spacing:0px;fill:#838383;fill-opacity:1;stroke:none;stroke-width:0.264583;stroke-opacity:1"
       id="text37752"
       aria-label="FBack"
       transform="translate(0,6.879167)">
      <path
         id="path1042"
         style="font-style:normal;font-variant:normal;font-weight:normal;font-stretch:normal;font-size:4.23333px;font-family:'Arial Narrow';-inkscape-font-specification:'Arial Narrow Normal';font-variant-ligatures:normal;font-variant-caps:normal;font-variant-numeric:normal;font-variant-east-asian:normal;fill:#838383;fill-opacity:1;stroke:none;stroke-width:0.264583;stroke-opacity:1"
         d="m 18.179099,283.16946 v -3.0303 h 1.676382 v 0.3576 H 18.50776 v 0.93844 h 1.16582 v 0.35761 h -1.16582 v 1.37665 z" />
      <path
         id="path1044"
         style="font-style:normal;font-variant:normal;font-weight:normal;font-stretch:normal;font-size:4.23333px;font-family:'Arial Narrow';-inkscape-font-specification:'Arial Narrow Normal';font-variant-ligatures:normal;font-variant-caps:normal;font-variant-numeric:normal;font-variant-east-asian:normal;fill:#838383;fill-opacity:1;stroke:none;stroke-width:0.264583;stroke-opacity:1"
         d="m 20.268892,283.16946 v -3.0303 h 0.932242 q 0.283186,0 0.448551,0.0889 0.165364,0.0868 0.270784,0.27286 0.10542,0.18603 0.10542,0.41134 0,0.20877 -0.09095,0.3762 -0.09095,0.16744 -0.256314,0.26872 0.21704,0.0786 0.341064,0.26872 0.12609,0.1881 0.12609,0.46509 0,0.27491 -0.113688,0.48369 -0.111621,0.2067 -0.299723,0.30179 -0.188102,0.093 -0.516764,0.093 z m 0.328662,-1.75699 h 0.537434 q 0.21084,0 0.299723,-0.0289 0.128157,-0.0434 0.19637,-0.1447 0.07028,-0.10335 0.07028,-0.27905 0,-0.1633 -0.06408,-0.27078 -0.06201,-0.10956 -0.167431,-0.1509 -0.103353,-0.0413 -0.374137,-0.0413 h -0.49816 z m 0,1.39939 h 0.618049 q 0.204639,0 0.30179,-0.0372 0.14056,-0.0537 0.212907,-0.1757 0.07441,-0.12403 0.07441,-0.31006 0,-0.17157 -0.07028,-0.28939 -0.07028,-0.11989 -0.190169,-0.17363 -0.117822,-0.0558 -0.37207,-0.0558 H 20.59755 Z" />
      <path
         id="path1046"
         style="font-style:normal;font-variant:normal;font-weight:normal;font-stretch:normal;font-size:4.23333px;font-family:'Arial Narrow';-inkscape-font-specification:'Arial Narrow Normal';font-variant-ligatures:normal;font-variant-caps:normal;font-variant-numeric:normal;font-variant-east-asian:normal;fill:#838383;fill-opacity:1;stroke:none;stroke-width:0.264583;stroke-opacity:1"
         d="m 23.725008,282.89868 q -0.152962,0.15916 -0.318326,0.23978 -0.165365,0.0806 -0.343132,0.0806 -0.281119,0 -0.448551,-0.1695 -0.167431,-0.16949 -0.167431,-0.45681 0,-0.19017 0.07855,-0.33693 0.07855,-0.14677 0.214974,-0.22945 0.136425,-0.0827 0.413411,-0.12195 0.37207,-0.0537 0.545703,-0.12816 l 0.0021,-0.0951 q 0,-0.2253 -0.08062,-0.31626 -0.113688,-0.13229 -0.349332,-0.13229 -0.212907,0 -0.318326,0.0889 -0.10542,0.0868 -0.15503,0.32866 l -0.299723,-0.0496 q 0.06408,-0.35347 0.258382,-0.5147 0.196371,-0.16123 0.560172,-0.16123 0.283187,0 0.444417,0.10749 0.161231,0.10542 0.202572,0.26251 0.04341,0.1571 0.04341,0.45889 v 0.49609 q 0,0.5209 0.0186,0.65733 0.02067,0.13436 0.07855,0.26251 H 23.78702 q -0.04754,-0.11368 -0.06201,-0.27078 z m -0.0248,-0.83096 q -0.167432,0.0827 -0.498161,0.14056 -0.192236,0.0331 -0.268717,0.0765 -0.07648,0.0414 -0.119889,0.11989 -0.04134,0.0765 -0.04134,0.17777 0,0.1571 0.09715,0.25218 0.09715,0.093 0.268717,0.093 0.163298,0 0.295589,-0.0847 0.134359,-0.0847 0.200505,-0.22531 0.06615,-0.14263 0.06615,-0.41341 z" />
      <path
         id="path1048"
         style="font-style:normal;font-variant:normal;font-weight:normal;font-stretch:normal;font-size:4.23333px;font-family:'Arial Narrow';-inkscape-font-specification:'Arial Narrow Normal';font-variant-ligatures:normal;font-variant-caps:normal;font-variant-numeric:normal;font-variant-east-asian:normal;fill:#838383;fill-opacity:1;stroke:none;stroke-width:0.264583;stroke-opacity:1"
         d="m 25.665974,282.36538 0.299723,0.0475 q -0.05168,0.39274 -0.260449,0.59945 -0.206706,0.2067 -0.498161,0.2067 -0.353466,0 -0.582909,-0.28938 -0.227376,-0.29146 -0.227376,-0.8599 0,-0.57257 0.229443,-0.85783 0.23151,-0.28732 0.593245,-0.28732 0.279052,0 0.469221,0.17363 0.192237,0.17364 0.24598,0.5209 l -0.295589,0.0558 q -0.04341,-0.22324 -0.150895,-0.33279 -0.107487,-0.11162 -0.258382,-0.11162 -0.225309,0 -0.374137,0.2005 -0.146761,0.19844 -0.146761,0.63252 0,0.44855 0.14056,0.64905 0.142627,0.20051 0.363802,0.20051 0.173632,0 0.295589,-0.13229 0.124023,-0.13436 0.157096,-0.41548 z" />
      <path
         id="path1050"
         style="font-style:normal;font-variant:normal;font-weight:normal;font-stretch:normal;font-size:4.23333px;font-family:'Arial Narrow';-inkscape-font-specification:'Arial Narrow Normal';font-variant-ligatures:normal;font-variant-caps:normal;font-variant-numeric:normal;font-variant-east-asian:normal;fill:#838383;fill-opacity:1;stroke:none;stroke-width:0.264583;stroke-opacity:1"
         d="m 26.23028,283.16946 v -3.0303 h 0.303857 v 1.72806 l 0.72347,-0.89297 h 0.394807 l -0.688329,0.81442 0.756542,1.38079 H 27.34649 l -0.597379,-1.12241 -0.214974,0.25218 v 0.87023 z" />
    </g>
    <path
       sodipodi:nodetypes="ccccccc"
       id="path942"
       d="m 14.363373,207.86718 v 18.70989 h 14.357812 v 17.5108 H 1.5169097 v -36.24328 z"
       style="fill:#c9c9c9;fill-opacity:0.710526;stroke:#778ce4;stroke-width:0.275013;stroke-linecap:butt;stroke-linejoin:miter;stroke-miterlimit:4;stroke-dasharray:0.275013, 0.275013;stroke-dashoffset:0;stroke-opacity:1" />
    <g
       transform="translate(0,7.179167)"
       style="font-style:normal;font-variant:normal;font-weight:normal;font-stretch:normal;font-size:4.23333px;line-height:1.25;font-family:'Arial Narrow';-inkscape-font-specification:'Arial Narrow Normal';font-variant-ligatures:normal;font-variant-caps:normal;font-variant-numeric:normal;font-variant-east-asian:normal;word-spacing:0px;fill:#838383;fill-opacity:1;stroke:none;stroke-width:0.264583;stroke-opacity:1"
       id="text940"
       aria-label="Pickup">
      <path
         id="path1003"
         style="font-style:normal;font-variant:normal;font-weight:normal;font-stretch:normal;font-size:4.23333px;font-family:'Arial Narrow';-inkscape-font-specification:'Arial Narrow Normal';font-variant-ligatures:normal;font-variant-caps:normal;font-variant-numeric:normal;font-variant-east-asian:normal;fill:#838383;fill-opacity:1;stroke:none;stroke-width:0.264583;stroke-opacity:1"
         d="m 17.727293,235.93771 v -3.0303 h 0.936377 q 0.330728,0 0.487825,0.0579 0.214973,0.0785 0.343131,0.29145 0.128157,0.21291 0.128157,0.52297 0,0.40927 -0.208772,0.66766 -0.208773,0.25838 -0.721403,0.25838 h -0.636653 v 1.23196 z m 0.328662,-1.58956 h 0.642855 q 0.303857,0 0.444416,-0.13643 0.14056,-0.13849 0.14056,-0.41548 0,-0.17983 -0.07028,-0.30799 -0.06821,-0.12815 -0.167431,-0.1757 -0.09715,-0.0475 -0.353467,-0.0475 h -0.636653 z" />
      <path
         id="path1005"
         style="font-style:normal;font-variant:normal;font-weight:normal;font-stretch:normal;font-size:4.23333px;font-family:'Arial Narrow';-inkscape-font-specification:'Arial Narrow Normal';font-variant-ligatures:normal;font-variant-caps:normal;font-variant-numeric:normal;font-variant-east-asian:normal;fill:#838383;fill-opacity:1;stroke:none;stroke-width:0.264583;stroke-opacity:1"
         d="m 19.99692,233.33529 v -0.42788 h 0.303857 v 0.42788 z m 0,2.60242 v -2.19521 h 0.303857 v 2.19521 z" />
      <path
         id="path1007"
         style="font-style:normal;font-variant:normal;font-weight:normal;font-stretch:normal;font-size:4.23333px;font-family:'Arial Narrow';-inkscape-font-specification:'Arial Narrow Normal';font-variant-ligatures:normal;font-variant-caps:normal;font-variant-numeric:normal;font-variant-east-asian:normal;fill:#838383;fill-opacity:1;stroke:none;stroke-width:0.264583;stroke-opacity:1"
         d="m 21.946154,235.13363 0.299723,0.0475 q -0.05168,0.39274 -0.260449,0.59945 -0.206706,0.2067 -0.498161,0.2067 -0.353466,0 -0.582909,-0.28938 -0.227376,-0.29146 -0.227376,-0.8599 0,-0.57257 0.229443,-0.85783 0.23151,-0.28732 0.593245,-0.28732 0.279052,0 0.469221,0.17363 0.192237,0.17364 0.24598,0.5209 l -0.295589,0.0558 q -0.04341,-0.22324 -0.150895,-0.33279 -0.107487,-0.11162 -0.258382,-0.11162 -0.225309,0 -0.374137,0.2005 -0.146761,0.19844 -0.146761,0.63252 0,0.44855 0.14056,0.64905 0.142627,0.20051 0.363802,0.20051 0.173632,0 0.295589,-0.13229 0.124023,-0.13436 0.157096,-0.41548 z" />
      <path
         id="path1009"
         style="font-style:normal;font-variant:normal;font-weight:normal;font-stretch:normal;font-size:4.23333px;font-family:'Arial Narrow';-inkscape-font-specification:'Arial Narrow Normal';font-variant-ligatures:normal;font-variant-caps:normal;font-variant-numeric:normal;font-variant-east-asian:normal;fill:#838383;fill-opacity:1;stroke:none;stroke-width:0.264583;stroke-opacity:1"
         d="m 22.51046,235.93771 v -3.0303 h 0.303857 v 1.72806 l 0.72347,-0.89297 h 0.394807 l -0.688329,0.81442 0.756542,1.38079 H 23.62667 l -0.597379,-1.12241 -0.214974,0.25218 v 0.87023 z" />
      <path
         id="path1011"
         style="font-style:normal;font-variant:normal;font-weight:normal;font-stretch:normal;font-size:4.23333px;font-family:'Arial Narrow';-inkscape-font-specification:'Arial Narrow Normal';font-variant-ligatures:normal;font-variant-caps:normal;font-variant-numeric:normal;font-variant-east-asian:normal;fill:#838383;fill-opacity:1;stroke:none;stroke-width:0.264583;stroke-opacity:1"
         d="m 25.418807,235.93771 v -0.32246 q -0.10542,0.18604 -0.248047,0.27906 -0.142626,0.093 -0.32246,0.093 -0.212907,0 -0.363802,-0.11369 -0.150895,-0.11575 -0.202571,-0.29145 -0.04961,-0.1757 -0.04961,-0.47956 v -1.36012 h 0.303857 v 1.2175 q 0,0.33899 0.03307,0.45475 0.03514,0.11369 0.126091,0.18397 0.09302,0.0682 0.210839,0.0682 0.219108,0 0.359668,-0.17983 0.119889,-0.15503 0.119889,-0.56844 v -1.17616 h 0.305924 v 2.19521 z" />
      <path
         id="path1013"
         style="font-style:normal;font-variant:normal;font-weight:normal;font-stretch:normal;font-size:4.23333px;font-family:'Arial Narrow';-inkscape-font-specification:'Arial Narrow Normal';font-variant-ligatures:normal;font-variant-caps:normal;font-variant-numeric:normal;font-variant-east-asian:normal;fill:#838383;fill-opacity:1;stroke:none;stroke-width:0.264583;stroke-opacity:1"
         d="m 26.173283,236.77901 v -3.03651 h 0.279052 v 0.28525 q 0.103353,-0.17776 0.229443,-0.25631 0.126091,-0.0786 0.289388,-0.0786 0.212907,0 0.384473,0.12609 0.171565,0.12609 0.274918,0.38447 0.10542,0.25632 0.10542,0.61805 0,0.56018 -0.235645,0.86403 -0.233577,0.30179 -0.549836,0.30179 -0.14056,0 -0.262516,-0.0723 -0.121957,-0.0724 -0.21084,-0.20464 v 1.06867 z m 0.274918,-1.9265 q 0,0.42581 0.142627,0.62838 0.142627,0.20051 0.345198,0.20051 0.194304,0 0.341064,-0.20877 0.146761,-0.20878 0.146761,-0.64493 0,-0.42994 -0.142626,-0.63665 -0.142627,-0.2067 -0.347266,-0.2067 -0.183968,0 -0.334863,0.22324 -0.150895,0.22117 -0.150895,0.64492 z" />
    </g>
    <g
       transform="translate(0,6.779167)"
       style="font-style:normal;font-variant:normal;font-weight:normal;font-stretch:normal;font-size:4.23333px;line-height:1.25;font-family:'Arial Narrow';-inkscape-font-specification:'Arial Narrow Normal';font-variant-ligatures:normal;font-variant-caps:normal;font-variant-numeric:normal;font-variant-east-asian:normal;word-spacing:0px;fill:#838383;fill-opacity:1;stroke:none;stroke-width:0.264583;stroke-opacity:1"
       id="text976"
       aria-label="Pk Pos">
      <path
         id="path992"
         style="font-style:normal;font-variant:normal;font-weight:normal;font-stretch:normal;font-size:4.23333px;font-family:'Arial Narrow';-inkscape-font-specification:'Arial Narrow Normal';font-variant-ligatures:normal;font-variant-caps:normal;font-variant-numeric:normal;font-variant-east-asian:normal;fill:#838383;fill-opacity:1;stroke:none;stroke-width:0.264583;stroke-opacity:1"
         d="m 2.319555,236.33252 v -3.0303 h 0.9363761 q 0.3307289,0 0.4878252,0.0579 0.2149737,0.0785 0.3431312,0.29146 0.1281574,0.21291 0.1281574,0.52296 0,0.40928 -0.2087726,0.66766 -0.2087726,0.25838 -0.7214024,0.25838 H 2.6482168 v 1.23197 z m 0.3286618,-1.58957 h 0.6428543 q 0.3038572,0 0.4444169,-0.13642 0.1405598,-0.13849 0.1405598,-0.41548 0,-0.17983 -0.07028,-0.30799 -0.068213,-0.12816 -0.1674315,-0.1757 -0.097152,-0.0475 -0.3534665,-0.0475 h -0.636653 z" />
      <path
         id="path994"
         style="font-style:normal;font-variant:normal;font-weight:normal;font-stretch:normal;font-size:4.23333px;font-family:'Arial Narrow';-inkscape-font-specification:'Arial Narrow Normal';font-variant-ligatures:normal;font-variant-caps:normal;font-variant-numeric:normal;font-variant-east-asian:normal;fill:#838383;fill-opacity:1;stroke:none;stroke-width:0.264583;stroke-opacity:1"
         d="m 4.5974501,236.33252 v -3.0303 h 0.3038571 v 1.72805 l 0.7234695,-0.89296 h 0.3948076 l -0.6883295,0.81442 0.7565423,1.38079 h -0.374137 l -0.5973791,-1.12241 -0.2149738,0.25218 v 0.87023 z" />
      <path
         id="path996"
         style="font-style:normal;font-variant:normal;font-weight:normal;font-stretch:normal;font-size:4.23333px;font-family:'Arial Narrow';-inkscape-font-specification:'Arial Narrow Normal';font-variant-ligatures:normal;font-variant-caps:normal;font-variant-numeric:normal;font-variant-east-asian:normal;fill:#838383;fill-opacity:1;stroke:none;stroke-width:0.264583;stroke-opacity:1"
         d="m 7.3383657,236.33252 v -3.0303 h 0.9363762 q 0.3307289,0 0.4878251,0.0579 0.2149738,0.0785 0.3431312,0.29146 0.1281575,0.21291 0.1281575,0.52296 0,0.40928 -0.2087726,0.66766 -0.2087727,0.25838 -0.7214024,0.25838 H 7.6670276 v 1.23197 z m 0.3286619,-1.58957 h 0.6428542 q 0.3038572,0 0.444417,-0.13642 0.1405598,-0.13849 0.1405598,-0.41548 0,-0.17983 -0.07028,-0.30799 -0.068213,-0.12816 -0.1674315,-0.1757 -0.097152,-0.0475 -0.3534665,-0.0475 h -0.636653 z" />
      <path
         id="path998"
         style="font-style:normal;font-variant:normal;font-weight:normal;font-stretch:normal;font-size:4.23333px;font-family:'Arial Narrow';-inkscape-font-specification:'Arial Narrow Normal';font-variant-ligatures:normal;font-variant-caps:normal;font-variant-numeric:normal;font-variant-east-asian:normal;fill:#838383;fill-opacity:1;stroke:none;stroke-width:0.264583;stroke-opacity:1"
         d="m 9.4943045,235.23491 q 0,-0.56844 0.2377114,-0.85783 0.2397785,-0.28938 0.6056471,-0.28938 0.359668,0 0.601513,0.28938 0.241846,0.28939 0.241846,0.8351 0,0.59117 -0.237712,0.88056 -0.237711,0.28939 -0.605647,0.28939 -0.3617345,0 -0.60358,-0.28939 -0.2397785,-0.29145 -0.2397785,-0.85783 z m 0.3121254,0 q 0,0.42582 0.1550292,0.63459 0.1550289,0.2067 0.3844719,0.2067 0.214974,0 0.367936,-0.20877 0.155029,-0.21084 0.155029,-0.63252 0,-0.42374 -0.155029,-0.63045 -0.155029,-0.20877 -0.384472,-0.20877 -0.217041,0 -0.370003,0.20877 -0.1529621,0.20877 -0.1529621,0.63045 z" />
      <path
         id="path1000"
         style="font-style:normal;font-variant:normal;font-weight:normal;font-stretch:normal;font-size:4.23333px;font-family:'Arial Narrow';-inkscape-font-specification:'Arial Narrow Normal';font-variant-ligatures:normal;font-variant-caps:normal;font-variant-numeric:normal;font-variant-east-asian:normal;fill:#838383;fill-opacity:1;stroke:none;stroke-width:0.264583;stroke-opacity:1"
         d="m 11.427001,235.67726 0.301791,-0.0579 q 0.02687,0.23151 0.14676,0.34519 0.11989,0.11162 0.318327,0.11162 0.198437,0 0.305924,-0.0971 0.109554,-0.0992 0.109554,-0.25011 0,-0.13023 -0.09302,-0.20257 -0.06408,-0.0496 -0.310059,-0.12403 -0.355533,-0.10955 -0.475422,-0.18603 -0.11989,-0.0765 -0.186035,-0.20464 -0.06615,-0.12816 -0.06615,-0.29145 0,-0.28112 0.179834,-0.45682 0.179833,-0.1757 0.49816,-0.1757 0.200504,0 0.351399,0.0723 0.152963,0.0724 0.233578,0.19431 0.08061,0.12195 0.111621,0.34933 l -0.297656,0.0496 q -0.04134,-0.35967 -0.390674,-0.35967 -0.198437,0 -0.295589,0.0806 -0.09715,0.0785 -0.09715,0.20257 0,0.12195 0.09302,0.19223 0.05581,0.0413 0.330729,0.1323 0.378271,0.12195 0.489892,0.1943 0.111621,0.0703 0.173633,0.1943 0.06201,0.12196 0.06201,0.29146 0,0.31419 -0.200505,0.50849 -0.198437,0.19431 -0.543635,0.19431 -0.646989,0 -0.750342,-0.70694 z" />
    </g>
    <g
       style="font-style:normal;font-variant:normal;font-weight:normal;font-stretch:normal;font-size:4.23333px;line-height:1.25;font-family:'Arial Narrow';-inkscape-font-specification:'Arial Narrow Normal';font-variant-ligatures:normal;font-variant-caps:normal;font-variant-numeric:normal;font-variant-east-asian:normal;word-spacing:0px;fill:#838383;fill-opacity:1;stroke:none;stroke-width:0.264583;stroke-opacity:1"
       id="text1000"
       aria-label="DAdj"
       transform="translate(0,2.201824)">
      <path
         id="path952"
         style="font-style:normal;font-variant:normal;font-weight:normal;font-stretch:normal;font-size:4.23333px;font-family:'Arial Narrow';-inkscape-font-specification:'Arial Narrow Normal';font-variant-ligatures:normal;font-variant-caps:normal;font-variant-numeric:normal;font-variant-east-asian:normal;fill:#838383;fill-opacity:1;stroke:none;stroke-width:0.264583;stroke-opacity:1"
         d="m 4.2718869,200.23094 v -3.0303 h 0.857828 q 0.3183266,0 0.483691,0.0558 0.2170409,0.0724 0.3762042,0.26458 0.1591632,0.19224 0.2480466,0.48576 0.088883,0.29145 0.088883,0.69246 0,0.5147 -0.150895,0.87437 -0.1508951,0.3576 -0.3886065,0.50849 -0.2356443,0.14883 -0.6180496,0.14883 z m 0.3286618,-0.3576 h 0.5291662 q 0.3203937,0 0.4857581,-0.10335 0.1653644,-0.10542 0.2542478,-0.33693 0.1178222,-0.30799 0.1178222,-0.73794 0,-0.46095 -0.1260904,-0.72347 -0.1240233,-0.26458 -0.3203936,-0.35347 -0.1322916,-0.0599 -0.4196123,-0.0599 h -0.520898 z" />
      <path
         id="path954"
         style="font-style:normal;font-variant:normal;font-weight:normal;font-stretch:normal;font-size:4.23333px;font-family:'Arial Narrow';-inkscape-font-specification:'Arial Narrow Normal';font-variant-ligatures:normal;font-variant-caps:normal;font-variant-numeric:normal;font-variant-east-asian:normal;fill:#838383;fill-opacity:1;stroke:none;stroke-width:0.264583;stroke-opacity:1"
         d="m 6.5125752,200.23094 0.9549797,-3.0303 h 0.3534665 l 1.0169913,3.0303 H 8.4618086 L 8.1724208,199.31317 H 7.1347589 l -0.2728513,0.91777 z m 0.7172683,-1.24437 h 0.8412916 l -0.2583819,-0.83922 q -0.1198893,-0.38654 -0.1756998,-0.62839 -0.047542,0.29146 -0.1343586,0.57878 z" />
      <path
         id="path956"
         style="font-style:normal;font-variant:normal;font-weight:normal;font-stretch:normal;font-size:4.23333px;font-family:'Arial Narrow';-inkscape-font-specification:'Arial Narrow Normal';font-variant-ligatures:normal;font-variant-caps:normal;font-variant-numeric:normal;font-variant-east-asian:normal;fill:#838383;fill-opacity:1;stroke:none;stroke-width:0.264583;stroke-opacity:1"
         d="m 10.22294,200.23094 v -0.27698 q -0.08268,0.15916 -0.212907,0.24391 -0.1302244,0.0827 -0.2811195,0.0827 -0.3183265,0 -0.5519038,-0.29972 -0.2315102,-0.30179 -0.2315102,-0.84749 0,-0.37414 0.1033528,-0.63459 0.1033527,-0.26045 0.2749183,-0.38654 0.1736327,-0.12609 0.3844724,-0.12609 0.150895,0 0.2790525,0.0806 0.1302245,0.0786 0.2149735,0.22118 v -1.08727 h 0.305924 v 3.0303 z M 9.2576249,199.1354 q 0,0.42582 0.1467609,0.63252 0.148828,0.20671 0.3451983,0.20671 0.1943032,0 0.3369299,-0.19844 0.142627,-0.19844 0.142627,-0.59945 0,-0.46095 -0.142627,-0.67179 -0.1426267,-0.21291 -0.3596675,-0.21291 -0.1922362,0 -0.3307289,0.20464 -0.1384927,0.20257 -0.1384927,0.63872 z" />
      <path
         id="path958"
         style="font-style:normal;font-variant:normal;font-weight:normal;font-stretch:normal;font-size:4.23333px;font-family:'Arial Narrow';-inkscape-font-specification:'Arial Narrow Normal';font-variant-ligatures:normal;font-variant-caps:normal;font-variant-numeric:normal;font-variant-east-asian:normal;fill:#838383;fill-opacity:1;stroke:none;stroke-width:0.264583;stroke-opacity:1"
         d="m 10.98775,197.63265 v -0.43201 h 0.303857 v 0.43201 z m -0.386539,3.44992 0.05788,-0.31626 q 0.09095,0.0289 0.142627,0.0289 0.09715,0 0.14056,-0.0765 0.04547,-0.0765 0.04547,-0.37621 v -2.30683 h 0.303857 v 2.3151 q 0,0.44855 -0.115755,0.60978 -0.113688,0.16123 -0.334863,0.16123 -0.124023,0 -0.239778,-0.0393 z" />
    </g>
    <g
       style="font-style:normal;font-variant:normal;font-weight:normal;font-stretch:normal;font-size:4.23333px;line-height:1.25;font-family:'Arial Rounded MT Bold';-inkscape-font-specification:'Arial Rounded MT Bold, Normal';font-variant-ligatures:normal;font-variant-caps:normal;font-variant-numeric:normal;font-variant-east-asian:normal;word-spacing:0px;fill:#c00000;fill-opacity:1;stroke-width:0.264583"
       id="text1004"
       aria-label="Waveguide"
       transform="translate(0,2.1166667)">
      <path
         id="path972"
         style="font-style:normal;font-variant:normal;font-weight:normal;font-stretch:normal;font-size:4.23333px;font-family:'Arial Rounded MT Bold';-inkscape-font-specification:'Arial Rounded MT Bold, Normal';font-variant-ligatures:normal;font-variant-caps:normal;font-variant-numeric:normal;font-variant-east-asian:normal;fill:#c00000;fill-opacity:1;stroke-width:0.264583"
         d="m 6.5304612,174.63707 -0.4898922,-1.81694 -0.4960933,1.81694 q -0.057878,0.20671 -0.093017,0.29766 -0.033073,0.0889 -0.1178222,0.16123 -0.084749,0.0703 -0.225309,0.0703 -0.1136881,0 -0.1881021,-0.0434 -0.072347,-0.0413 -0.1178221,-0.11782 -0.045475,-0.0786 -0.074414,-0.18397 -0.028939,-0.10749 -0.051676,-0.19844 l -0.5043616,-2.04018 q -0.045475,-0.17777 -0.045475,-0.27078 0,-0.11783 0.082682,-0.19844 0.082682,-0.0806 0.2046385,-0.0806 0.1674315,0 0.2253091,0.10749 0.057878,0.10749 0.1012857,0.31213 l 0.3968747,1.76939 0.4444169,-1.65571 q 0.049609,-0.19017 0.088883,-0.28938 0.039274,-0.0992 0.1281574,-0.17157 0.088883,-0.0724 0.2418455,-0.0724 0.1550292,0 0.2397785,0.0765 0.086816,0.0744 0.1198892,0.1633 0.033073,0.0889 0.088883,0.29352 l 0.448551,1.65571 0.3968747,-1.76939 q 0.028939,-0.1385 0.053744,-0.21705 0.026872,-0.0785 0.088883,-0.14056 0.064079,-0.062 0.183968,-0.062 0.1198892,0 0.2025714,0.0806 0.084749,0.0786 0.084749,0.19844 0,0.0847 -0.045475,0.27078 l -0.5043616,2.04018 q -0.051676,0.20671 -0.086816,0.30386 -0.033073,0.0951 -0.1157551,0.16743 -0.080615,0.0724 -0.2294432,0.0724 -0.1405598,0 -0.225309,-0.0703 -0.084749,-0.0703 -0.1178222,-0.1571 -0.033073,-0.0889 -0.093017,-0.30179 z" />
      <path
         id="path974"
         style="font-style:normal;font-variant:normal;font-weight:normal;font-stretch:normal;font-size:4.23333px;font-family:'Arial Rounded MT Bold';-inkscape-font-specification:'Arial Rounded MT Bold, Normal';font-variant-ligatures:normal;font-variant-caps:normal;font-variant-numeric:normal;font-variant-east-asian:normal;fill:#c00000;fill-opacity:1;stroke-width:0.264583"
         d="m 9.6382792,174.84791 q -0.2046385,0.15917 -0.3968746,0.23978 -0.1901691,0.0785 -0.4278805,0.0785 -0.2170409,0 -0.3824053,-0.0847 -0.1632974,-0.0868 -0.2521808,-0.23358 -0.088883,-0.14676 -0.088883,-0.31832 0,-0.23151 0.146761,-0.39481 0.1467609,-0.1633 0.4030758,-0.21911 0.053743,-0.0124 0.2666502,-0.0558 0.2129067,-0.0434 0.3638017,-0.0786 0.1529622,-0.0372 0.3307289,-0.0889 -0.010335,-0.22324 -0.09095,-0.3266 -0.078548,-0.10542 -0.3286618,-0.10542 -0.2149738,0 -0.3245278,0.0599 -0.1074869,0.0599 -0.186035,0.17983 -0.076481,0.11989 -0.1095539,0.15917 -0.031006,0.0372 -0.1364257,0.0372 -0.095085,0 -0.1653644,-0.0599 -0.068213,-0.062 -0.068213,-0.1571 0,-0.14883 0.1054199,-0.28939 0.1054198,-0.14056 0.3286618,-0.23151 0.223242,-0.0909 0.556038,-0.0909 0.37207,0 0.5849767,0.0889 0.2129067,0.0868 0.2997236,0.27698 0.08888,0.19017 0.08888,0.50436 0,0.19844 -0.0021,0.33693 0,0.1385 -0.0021,0.308 0,0.15916 0.05168,0.33279 0.05374,0.17157 0.05374,0.22118 0,0.0868 -0.08268,0.15916 -0.08062,0.0703 -0.1839686,0.0703 -0.086816,0 -0.1715656,-0.0806 -0.084749,-0.0827 -0.1798339,-0.23771 z m -0.037207,-0.81648 q -0.1240233,0.0455 -0.3617347,0.0971 -0.2356443,0.0496 -0.3265948,0.0744 -0.09095,0.0227 -0.1736326,0.093 -0.082682,0.0682 -0.082682,0.19224 0,0.12815 0.097152,0.2191 0.097152,0.0889 0.2542478,0.0889 0.1674315,0 0.3079913,-0.0724 0.1426268,-0.0744 0.2087726,-0.19017 0.076481,-0.12816 0.076481,-0.42168 z" />
      <path
         id="path976"
         style="font-style:normal;font-variant:normal;font-weight:normal;font-stretch:normal;font-size:4.23333px;font-family:'Arial Rounded MT Bold';-inkscape-font-specification:'Arial Rounded MT Bold, Normal';font-variant-ligatures:normal;font-variant-caps:normal;font-variant-numeric:normal;font-variant-east-asian:normal;fill:#c00000;fill-opacity:1;stroke-width:0.264583"
         d="m 11.017005,173.22321 0.456819,1.28157 0.491959,-1.33738 q 0.05788,-0.16123 0.113688,-0.22738 0.05581,-0.0682 0.169499,-0.0682 0.107487,0 0.181901,0.0723 0.07648,0.0724 0.07648,0.16744 0,0.0372 -0.01447,0.0868 -0.0124,0.0496 -0.03101,0.093 -0.01654,0.0434 -0.03927,0.0992 l -0.541569,1.34358 q -0.02274,0.0579 -0.05994,0.14677 -0.03514,0.0889 -0.08061,0.15296 -0.04341,0.062 -0.109554,0.0971 -0.06408,0.0351 -0.157096,0.0351 -0.119889,0 -0.192236,-0.0537 -0.07028,-0.0558 -0.10542,-0.11989 -0.03307,-0.0662 -0.113688,-0.25839 l -0.537434,-1.32911 q -0.0186,-0.0496 -0.03927,-0.0992 -0.0186,-0.0496 -0.03307,-0.10129 -0.0124,-0.0517 -0.0124,-0.0889 0,-0.0579 0.03514,-0.11369 0.03514,-0.0579 0.09715,-0.093 0.06201,-0.0372 0.134358,-0.0372 0.14056,0 0.192237,0.0806 0.05374,0.0806 0.117822,0.27079 z" />
      <path
         id="path978"
         style="font-style:normal;font-variant:normal;font-weight:normal;font-stretch:normal;font-size:4.23333px;font-family:'Arial Rounded MT Bold';-inkscape-font-specification:'Arial Rounded MT Bold, Normal';font-variant-ligatures:normal;font-variant-caps:normal;font-variant-numeric:normal;font-variant-east-asian:normal;fill:#c00000;fill-opacity:1;stroke-width:0.264583"
         d="M 14.433847,174.15752 H 13.33004 q 0.0021,0.19223 0.07648,0.33899 0.07648,0.14676 0.200504,0.22118 0.12609,0.0744 0.276985,0.0744 0.101286,0 0.183968,-0.0227 0.08475,-0.0248 0.163298,-0.0744 0.07855,-0.0517 0.144694,-0.10955 0.06614,-0.0579 0.171565,-0.1571 0.04341,-0.0372 0.124024,-0.0372 0.08682,0 0.140559,0.0476 0.05374,0.0475 0.05374,0.13435 0,0.0765 -0.05994,0.17984 -0.05994,0.10128 -0.181901,0.19637 -0.119889,0.093 -0.303857,0.15503 -0.181901,0.062 -0.419612,0.062 -0.543636,0 -0.845426,-0.31006 -0.30179,-0.31006 -0.30179,-0.84129 0,-0.25011 0.07441,-0.46302 0.07441,-0.21497 0.217041,-0.36794 0.142627,-0.15296 0.351399,-0.23357 0.208773,-0.0827 0.463021,-0.0827 0.330729,0 0.566373,0.14056 0.237711,0.1385 0.355534,0.35967 0.117822,0.22118 0.117822,0.45062 0,0.21291 -0.121957,0.27698 -0.121956,0.062 -0.343131,0.062 z m -1.103807,-0.3204 h 1.023192 q -0.02067,-0.28939 -0.157096,-0.43201 -0.134359,-0.1447 -0.355534,-0.1447 -0.210839,0 -0.347265,0.14677 -0.134359,0.14469 -0.163297,0.42994 z" />
      <path
         id="path980"
         style="font-style:normal;font-variant:normal;font-weight:normal;font-stretch:normal;font-size:4.23333px;font-family:'Arial Rounded MT Bold';-inkscape-font-specification:'Arial Rounded MT Bold, Normal';font-variant-ligatures:normal;font-variant-caps:normal;font-variant-numeric:normal;font-variant-east-asian:normal;fill:#c00000;fill-opacity:1;stroke-width:0.264583"
         d="m 17.389737,173.28522 v 1.63917 q 0,0.28112 -0.05994,0.48369 -0.05994,0.20258 -0.192236,0.33487 -0.132292,0.13229 -0.347266,0.19637 -0.212906,0.0641 -0.531233,0.0641 -0.291455,0 -0.520898,-0.0827 -0.229443,-0.0806 -0.353467,-0.21084 -0.124023,-0.12815 -0.124023,-0.26458 0,-0.10335 0.07028,-0.1695 0.07028,-0.0641 0.169499,-0.0641 0.124023,0 0.21704,0.10956 0.04548,0.0558 0.09302,0.11162 0.04961,0.0579 0.107487,0.0972 0.05994,0.0413 0.142627,0.0599 0.08268,0.0207 0.190169,0.0207 0.219108,0 0.338997,-0.062 0.121956,-0.0599 0.169498,-0.16949 0.04961,-0.10956 0.05788,-0.23565 0.0083,-0.12402 0.0124,-0.40101 -0.130224,0.1819 -0.30179,0.27699 -0.169498,0.0951 -0.405143,0.0951 -0.283186,0 -0.496093,-0.14469 -0.21084,-0.14469 -0.324528,-0.40514 -0.113688,-0.26045 -0.113688,-0.60152 0,-0.25424 0.06821,-0.45888 0.07028,-0.20464 0.198437,-0.3452 0.128158,-0.14056 0.295589,-0.21084 0.167432,-0.0723 0.367936,-0.0723 0.239779,0 0.415478,0.093 0.1757,0.0909 0.326595,0.28732 v -0.0765 q 0,-0.14676 0.07235,-0.22738 0.07235,-0.0806 0.186035,-0.0806 0.163297,0 0.217041,0.10748 0.05374,0.10542 0.05374,0.30593 z m -1.635041,0.7152 q 0,0.34313 0.148828,0.51883 0.150895,0.1757 0.388607,0.1757 0.14056,0 0.264583,-0.0744 0.12609,-0.0765 0.204638,-0.22738 0.07855,-0.15296 0.07855,-0.37 0,-0.3452 -0.152963,-0.53744 -0.150895,-0.19223 -0.398941,-0.19223 -0.241846,0 -0.388607,0.18396 -0.144694,0.18397 -0.144694,0.52297 z" />
      <path
         id="path982"
         style="font-style:normal;font-variant:normal;font-weight:normal;font-stretch:normal;font-size:4.23333px;font-family:'Arial Rounded MT Bold';-inkscape-font-specification:'Arial Rounded MT Bold, Normal';font-variant-ligatures:normal;font-variant-caps:normal;font-variant-numeric:normal;font-variant-east-asian:normal;fill:#c00000;fill-opacity:1;stroke-width:0.264583"
         d="m 19.428887,174.84791 v -0.0723 q -0.101285,0.12815 -0.212906,0.21497 -0.111621,0.0868 -0.243913,0.12816 -0.132291,0.0434 -0.30179,0.0434 -0.204638,0 -0.367936,-0.0848 -0.16123,-0.0847 -0.250114,-0.23358 -0.105419,-0.17984 -0.105419,-0.51677 v -1.11827 q 0,-0.1695 0.07648,-0.25218 0.07648,-0.0847 0.202571,-0.0847 0.128158,0 0.206706,0.0847 0.07855,0.0848 0.07855,0.25218 v 0.9033 q 0,0.19637 0.03307,0.33073 0.03307,0.13229 0.117822,0.20877 0.08682,0.0744 0.233577,0.0744 0.142627,0 0.268717,-0.0847 0.126091,-0.0848 0.183968,-0.22118 0.04754,-0.11989 0.04754,-0.52503 v -0.68626 q 0,-0.16743 0.07855,-0.25218 0.07855,-0.0847 0.204638,-0.0847 0.126091,0 0.202572,0.0847 0.07648,0.0827 0.07648,0.25218 v 1.63504 q 0,0.16123 -0.07441,0.24184 -0.07235,0.0806 -0.188102,0.0806 -0.115755,0 -0.192237,-0.0827 -0.07441,-0.0848 -0.07441,-0.23565 z" />
      <path
         id="path984"
         style="font-style:normal;font-variant:normal;font-weight:normal;font-stretch:normal;font-size:4.23333px;font-family:'Arial Rounded MT Bold';-inkscape-font-specification:'Arial Rounded MT Bold, Normal';font-variant-ligatures:normal;font-variant-caps:normal;font-variant-numeric:normal;font-variant-east-asian:normal;fill:#c00000;fill-opacity:1;stroke-width:0.264583"
         d="m 21.082531,173.1922 v 1.63091 q 0,0.1695 -0.08061,0.25631 -0.08062,0.0868 -0.204638,0.0868 -0.124024,0 -0.202572,-0.0889 -0.07648,-0.0889 -0.07648,-0.25425 v -1.61437 q 0,-0.16743 0.07648,-0.25218 0.07855,-0.0847 0.202572,-0.0847 0.124023,0 0.204638,0.0847 0.08061,0.0848 0.08061,0.23564 z m -0.279052,-0.58291 q -0.117822,0 -0.202572,-0.0724 -0.08268,-0.0723 -0.08268,-0.20463 0,-0.11989 0.08475,-0.19637 0.08682,-0.0786 0.200504,-0.0786 0.109554,0 0.194303,0.0703 0.08475,0.0703 0.08475,0.20464 0,0.13022 -0.08268,0.20463 -0.08268,0.0724 -0.19637,0.0724 z" />
      <path
         id="path986"
         style="font-style:normal;font-variant:normal;font-weight:normal;font-stretch:normal;font-size:4.23333px;font-family:'Arial Rounded MT Bold';-inkscape-font-specification:'Arial Rounded MT Bold, Normal';font-variant-ligatures:normal;font-variant-caps:normal;font-variant-numeric:normal;font-variant-east-asian:normal;fill:#c00000;fill-opacity:1;stroke-width:0.264583"
         d="m 23.213667,174.84378 v -0.0558 q -0.113688,0.13022 -0.225309,0.2129 -0.109554,0.0806 -0.239778,0.12196 -0.128158,0.0434 -0.28112,0.0434 -0.202571,0 -0.376204,-0.0847 -0.171566,-0.0868 -0.297656,-0.24598 -0.12609,-0.15916 -0.192236,-0.37414 -0.06408,-0.21497 -0.06408,-0.46508 0,-0.52917 0.258382,-0.82476 0.258382,-0.29559 0.680061,-0.29559 0.243913,0 0.411344,0.0847 0.167432,0.0827 0.326595,0.25632 v -0.83303 q 0,-0.17363 0.06821,-0.26251 0.07028,-0.0889 0.198437,-0.0889 0.128158,0 0.196371,0.0827 0.07028,0.0806 0.07028,0.23977 v 2.48874 q 0,0.16123 -0.07441,0.24184 -0.07441,0.0806 -0.192236,0.0806 -0.115755,0 -0.192236,-0.0827 -0.07441,-0.0848 -0.07441,-0.23978 z m -1.110009,-0.82889 q 0,0.22944 0.07028,0.39067 0.07235,0.16123 0.19637,0.24392 0.124024,0.0806 0.270785,0.0806 0.148828,0 0.270784,-0.0765 0.124023,-0.0785 0.19637,-0.23771 0.07441,-0.16123 0.07441,-0.40101 0,-0.22531 -0.07441,-0.38654 -0.07235,-0.1633 -0.198437,-0.24805 -0.124023,-0.0868 -0.272851,-0.0868 -0.15503,0 -0.276986,0.0889 -0.121956,0.0868 -0.190169,0.25218 -0.06615,0.1633 -0.06615,0.38034 z" />
      <path
         id="path989"
         style="font-style:normal;font-variant:normal;font-weight:normal;font-stretch:normal;font-size:4.23333px;font-family:'Arial Rounded MT Bold';-inkscape-font-specification:'Arial Rounded MT Bold, Normal';font-variant-ligatures:normal;font-variant-caps:normal;font-variant-numeric:normal;font-variant-east-asian:normal;fill:#c00000;fill-opacity:1;stroke-width:0.264583"
         d="m 25.888436,174.15752 h -1.103808 q 0.0021,0.19223 0.07648,0.33899 0.07648,0.14676 0.200505,0.22118 0.12609,0.0744 0.276985,0.0744 0.101286,0 0.183968,-0.0227 0.08475,-0.0248 0.163298,-0.0744 0.07855,-0.0517 0.144694,-0.10955 0.06614,-0.0579 0.171565,-0.1571 0.04341,-0.0372 0.124023,-0.0372 0.08682,0 0.14056,0.0476 0.05374,0.0475 0.05374,0.13435 0,0.0765 -0.05994,0.17984 -0.05994,0.10128 -0.181901,0.19637 -0.119889,0.093 -0.303857,0.15503 -0.181901,0.062 -0.419612,0.062 -0.543636,0 -0.845426,-0.31006 -0.30179,-0.31006 -0.30179,-0.84129 0,-0.25011 0.07441,-0.46302 0.07441,-0.21497 0.217041,-0.36794 0.142627,-0.15296 0.351399,-0.23357 0.208773,-0.0827 0.463021,-0.0827 0.330729,0 0.566373,0.14056 0.237711,0.1385 0.355533,0.35967 0.117823,0.22118 0.117823,0.45062 0,0.21291 -0.121957,0.27698 -0.121956,0.062 -0.343131,0.062 z m -1.103808,-0.3204 h 1.023193 q -0.02067,-0.28939 -0.157096,-0.43201 -0.134359,-0.1447 -0.355534,-0.1447 -0.21084,0 -0.347265,0.14677 -0.134359,0.14469 -0.163298,0.42994 z" />
    </g>
    <g
       style="font-style:normal;font-variant:normal;font-weight:normal;font-stretch:normal;font-size:4.23333px;line-height:1.25;font-family:'Arial Rounded MT Bold';-inkscape-font-specification:'Arial Rounded MT Bold, Normal';font-variant-ligatures:normal;font-variant-caps:normal;font-variant-numeric:normal;font-variant-east-asian:normal;word-spacing:0px;fill:#c00000;fill-opacity:1;stroke-width:0.264583"
       id="text1008"
       aria-label="Delay"
       transform="translate(0,2.1166667)">
      <path
         id="path961"
         style="font-style:normal;font-variant:normal;font-weight:normal;font-stretch:normal;font-size:4.23333px;font-family:'Arial Rounded MT Bold';-inkscape-font-specification:'Arial Rounded MT Bold, Normal';font-variant-ligatures:normal;font-variant-caps:normal;font-variant-numeric:normal;font-variant-east-asian:normal;fill:#c00000;fill-opacity:1;stroke-width:0.264583"
         d="m 10.066677,177.37592 h 0.799951 q 0.312125,0 0.535367,0.0579 0.223242,0.0579 0.405143,0.21704 0.473356,0.40515 0.473356,1.23197 0,0.27285 -0.04754,0.49816 -0.04754,0.22531 -0.146761,0.40721 -0.09922,0.17983 -0.254248,0.32246 -0.121956,0.10955 -0.26665,0.1757 -0.144694,0.0662 -0.312125,0.093 -0.165365,0.0269 -0.374137,0.0269 h -0.799951 q -0.1674312,0 -0.2521804,-0.0496 -0.084749,-0.0517 -0.111621,-0.14263 -0.024805,-0.093 -0.024805,-0.23978 v -2.22208 q 0,-0.19844 0.088883,-0.28732 0.088883,-0.0889 0.2873204,-0.0889 z m 0.237711,0.48575 v 2.05672 h 0.465088 q 0.152962,0 0.239778,-0.008 0.08682,-0.008 0.179834,-0.0413 0.09302,-0.0331 0.161231,-0.093 0.307991,-0.26045 0.307991,-0.8971 0,-0.44856 -0.136426,-0.6718 -0.134358,-0.22324 -0.332796,-0.28318 -0.198437,-0.062 -0.479557,-0.062 z" />
      <path
         id="path963"
         style="font-style:normal;font-variant:normal;font-weight:normal;font-stretch:normal;font-size:4.23333px;font-family:'Arial Rounded MT Bold';-inkscape-font-specification:'Arial Rounded MT Bold, Normal';font-variant-ligatures:normal;font-variant-caps:normal;font-variant-numeric:normal;font-variant-east-asian:normal;fill:#c00000;fill-opacity:1;stroke-width:0.264583"
         d="M 14.355817,179.44917 H 13.25201 q 0.0021,0.19224 0.07648,0.339 0.07648,0.14676 0.200504,0.22117 0.12609,0.0744 0.276986,0.0744 0.101285,0 0.183967,-0.0227 0.08475,-0.0248 0.163298,-0.0744 0.07855,-0.0517 0.144694,-0.10956 0.06615,-0.0579 0.171565,-0.15709 0.04341,-0.0372 0.124024,-0.0372 0.08682,0 0.140559,0.0475 0.05374,0.0475 0.05374,0.13436 0,0.0765 -0.05994,0.17983 -0.05994,0.10129 -0.181901,0.19638 -0.119889,0.093 -0.303857,0.15502 -0.181901,0.062 -0.419612,0.062 -0.543636,0 -0.845426,-0.31006 -0.30179,-0.31006 -0.30179,-0.84129 0,-0.25012 0.07441,-0.46302 0.07441,-0.21498 0.217041,-0.36794 0.142627,-0.15296 0.351399,-0.23358 0.208773,-0.0827 0.463021,-0.0827 0.330729,0 0.566373,0.14056 0.237711,0.13849 0.355534,0.35967 0.117822,0.22117 0.117822,0.45062 0,0.2129 -0.121956,0.27698 -0.121957,0.062 -0.343132,0.062 z m -1.103807,-0.32039 h 1.023192 q -0.02067,-0.28939 -0.157096,-0.43202 -0.134359,-0.14469 -0.355534,-0.14469 -0.210839,0 -0.347265,0.14676 -0.134359,0.1447 -0.163297,0.42995 z" />
      <path
         id="path965"
         style="font-style:normal;font-variant:normal;font-weight:normal;font-stretch:normal;font-size:4.23333px;font-family:'Arial Rounded MT Bold';-inkscape-font-specification:'Arial Rounded MT Bold, Normal';font-variant-ligatures:normal;font-variant-caps:normal;font-variant-numeric:normal;font-variant-east-asian:normal;fill:#c00000;fill-opacity:1;stroke-width:0.264583"
         d="m 15.294261,180.11476 v -2.44739 q 0,-0.1695 0.07441,-0.25631 0.07648,-0.0868 0.204638,-0.0868 0.128157,0 0.206706,0.0868 0.07855,0.0848 0.07855,0.25631 v 2.44739 q 0,0.17157 -0.08061,0.25839 -0.07855,0.0847 -0.204639,0.0847 -0.124023,0 -0.202571,-0.0889 -0.07648,-0.0889 -0.07648,-0.25425 z" />
      <path
         id="path967"
         style="font-style:normal;font-variant:normal;font-weight:normal;font-stretch:normal;font-size:4.23333px;font-family:'Arial Rounded MT Bold';-inkscape-font-specification:'Arial Rounded MT Bold, Normal';font-variant-ligatures:normal;font-variant-caps:normal;font-variant-numeric:normal;font-variant-east-asian:normal;fill:#c00000;fill-opacity:1;stroke-width:0.264583"
         d="m 17.869812,180.13957 q -0.204639,0.15916 -0.396875,0.23978 -0.190169,0.0786 -0.42788,0.0786 -0.217041,0 -0.382406,-0.0847 -0.163297,-0.0868 -0.25218,-0.23358 -0.08888,-0.14676 -0.08888,-0.31833 0,-0.23151 0.146761,-0.3948 0.146761,-0.1633 0.403076,-0.21911 0.05374,-0.0124 0.26665,-0.0558 0.212907,-0.0434 0.363802,-0.0786 0.152962,-0.0372 0.330729,-0.0889 -0.01034,-0.22325 -0.09095,-0.3266 -0.07855,-0.10542 -0.328661,-0.10542 -0.214974,0 -0.324528,0.06 -0.107487,0.0599 -0.186035,0.17983 -0.07648,0.11989 -0.109554,0.15916 -0.03101,0.0372 -0.136426,0.0372 -0.09508,0 -0.165364,-0.06 -0.06821,-0.062 -0.06821,-0.15709 0,-0.14883 0.10542,-0.28939 0.10542,-0.14056 0.328662,-0.23151 0.223242,-0.0909 0.556038,-0.0909 0.37207,0 0.584976,0.0889 0.212907,0.0868 0.299723,0.27699 0.08888,0.19017 0.08888,0.50436 0,0.19844 -0.0021,0.33693 0,0.13849 -0.0021,0.30799 0,0.15917 0.05168,0.3328 0.05374,0.17156 0.05374,0.22117 0,0.0868 -0.08268,0.15917 -0.08062,0.0703 -0.183968,0.0703 -0.08682,0 -0.171565,-0.0806 -0.08475,-0.0827 -0.179834,-0.23771 z m -0.03721,-0.81649 q -0.124024,0.0455 -0.361735,0.0971 -0.235644,0.0496 -0.326595,0.0744 -0.09095,0.0227 -0.173632,0.093 -0.08268,0.0682 -0.08268,0.19223 0,0.12816 0.09715,0.21911 0.09715,0.0889 0.254248,0.0889 0.167431,0 0.307991,-0.0723 0.142627,-0.0744 0.208773,-0.19017 0.07648,-0.12816 0.07648,-0.42168 z" />
      <path
         id="path969"
         style="font-style:normal;font-variant:normal;font-weight:normal;font-stretch:normal;font-size:4.23333px;font-family:'Arial Rounded MT Bold';-inkscape-font-specification:'Arial Rounded MT Bold, Normal';font-variant-ligatures:normal;font-variant-caps:normal;font-variant-numeric:normal;font-variant-east-asian:normal;fill:#c00000;fill-opacity:1;stroke-width:0.264583"
         d="m 19.425271,180.52818 0.05168,-0.12609 -0.694531,-1.74873 q -0.06408,-0.1509 -0.06408,-0.21911 0,-0.0724 0.03721,-0.13436 0.03721,-0.062 0.101285,-0.0992 0.06615,-0.0372 0.136426,-0.0372 0.121956,0 0.183968,0.0786 0.06201,0.0765 0.109554,0.22118 l 0.47749,1.38906 0.452685,-1.29191 q 0.05374,-0.1571 0.09715,-0.24598 0.04341,-0.0889 0.09095,-0.11989 0.04961,-0.031 0.138493,-0.031 0.06408,0 0.121956,0.0351 0.05995,0.0331 0.09095,0.0909 0.03307,0.0579 0.03307,0.12196 -0.0083,0.0393 -0.02687,0.11162 -0.0186,0.0724 -0.04548,0.14676 l -0.735871,1.9265 q -0.09509,0.25425 -0.186035,0.39894 -0.09095,0.14469 -0.241846,0.22118 -0.148828,0.0785 -0.403076,0.0785 -0.248046,0 -0.37207,-0.0537 -0.124023,-0.0537 -0.124023,-0.19637 0,-0.0971 0.05788,-0.1509 0.05994,-0.0517 0.175699,-0.0517 0.04548,0 0.08888,0.0124 0.05374,0.0124 0.09302,0.0124 0.09715,0 0.152962,-0.0289 0.05581,-0.0289 0.09922,-0.10128 0.04547,-0.0703 0.103353,-0.20877 z" />
    </g>
    <path
       style="fill:none;stroke:#bbbbbb;stroke-width:0.264468;stroke-linecap:butt;stroke-linejoin:miter;stroke-miterlimit:4;stroke-dasharray:0.264468, 0.264468;stroke-dashoffset:0;stroke-opacity:1"
       d="m 22.489718,233.9651 h -7.654284 v 28.98631"
       id="path988" />
    <path
       style="display:inline;fill:none;stroke:#000000;stroke-width:0.25;stroke-linecap:butt;stroke-linejoin:miter;stroke-miterlimit:4;stroke-dasharray:none;stroke-opacity:1;marker-end:url(#Arrow2Lend)"
       d="m 21.657318,266.87917 c 7.574526,0 7.574526,0 7.574526,0"
       id="path885"
       inkscape:connector-curvature="0" />
    <path
       inkscape:connector-curvature="0"
       id="path885-7"
       d="m 1.1798511,267.07267 c 7.5745261,0 7.5745261,0 7.5745261,0"
       style="display:inline;fill:none;stroke:#000000;stroke-width:0.25;stroke-linecap:butt;stroke-linejoin:miter;stroke-miterlimit:4;stroke-dasharray:none;stroke-opacity:1;marker-end:url(#Arrow2Lend-2)" />
    <path
       style="display:inline;fill:none;stroke:#000000;stroke-width:0.25;stroke-linecap:butt;stroke-linejoin:miter;stroke-miterlimit:4;stroke-dasharray:none;stroke-opacity:1"
       d="m 4.1670489,281.21196 c 20.8750001,0 20.8750001,0 20.8750001,0"
       id="path10816"
       inkscape:connector-curvature="0" />
    <path
       style="display:inline;fill:none;stroke:#000000;stroke-width:0.25;stroke-linecap:butt;stroke-linejoin:miter;stroke-miterlimit:4;stroke-dasharray:none;stroke-opacity:1"
       d="m 4.2793482,281.20841 c 0,-14.12904 0,-14.12904 0,-14.12904"
       id="path13496"
       inkscape:connector-curvature="0" />
    <rect
       ry="1.3655403"
       y="228.78514"
       x="17.614307"
       height="10.636658"
       width="10.234655"
       id="rect936"
       style="display:inline;opacity:1;fill:#7a7ace;fill-opacity:1;stroke:none;stroke-width:0.152876;stroke-miterlimit:14.8;stroke-dasharray:0.305752, 0.152876;stroke-dashoffset:0.0367753;stroke-opacity:1" />
    <path
       transform="matrix(0.27989751,0,0,0.18453193,38.573686,224.74465)"
       inkscape:transform-center-y="-0.0080975957"
       inkscape:transform-center-x="0.23831209"
       d="m -30.869626,228.23473 c 0.110888,0.57373 -5.154685,2.88775 -5.660748,3.17992 -0.630569,0.36406 -6.279544,4.34892 -6.967737,4.11114 -0.55231,-0.19084 0.07647,-5.90797 0.07647,-6.49232 6e-6,-0.72812 -0.626498,-7.6127 -0.07647,-8.0898 0.441421,-0.3829 5.078214,3.02021 5.584273,3.31238 0.630563,0.36407 6.906042,3.26379 7.044212,3.97868 z"
       inkscape:randomized="0"
       inkscape:rounded="0.09"
       inkscape:flatsided="false"
       sodipodi:arg2="0.85629207"
       sodipodi:arg1="-2.3148067e-08"
       sodipodi:r2="4.2094951"
       sodipodi:r1="8.4189901"
       sodipodi:cy="228.23473"
       sodipodi:cx="-39.288616"
       sodipodi:sides="3"
       id="path1022"
       style="opacity:0.94;fill:#000000;fill-opacity:1;stroke:#000000;stroke-width:0.265;stroke-miterlimit:4;stroke-dasharray:none;stroke-dashoffset:0;stroke-opacity:1"
       sodipodi:type="star" />
    <path
       sodipodi:type="star"
       style="display:inline;opacity:0.94;fill:#000000;fill-opacity:1;stroke:#000000;stroke-width:0.265;stroke-miterlimit:4;stroke-dasharray:none;stroke-dashoffset:0;stroke-opacity:1"
       id="path1022-8"
       sodipodi:sides="3"
       sodipodi:cx="-39.288616"
       sodipodi:cy="228.23473"
       sodipodi:r1="8.4189901"
       sodipodi:r2="4.2094951"
       sodipodi:arg1="-2.3148067e-08"
       sodipodi:arg2="0.85629207"
       inkscape:flatsided="false"
       inkscape:rounded="0.09"
       inkscape:randomized="0"
       d="m -30.869626,228.23473 c 0.110888,0.57373 -5.154685,2.88775 -5.660748,3.17992 -0.630569,0.36406 -6.279544,4.34892 -6.967737,4.11114 -0.55231,-0.19084 0.07647,-5.90797 0.07647,-6.49232 6e-6,-0.72812 -0.626498,-7.6127 -0.07647,-8.0898 0.441421,-0.3829 5.078214,3.02021 5.584273,3.31238 0.630563,0.36407 6.906042,3.26379 7.044212,3.97868 z"
       inkscape:transform-center-x="0.23831209"
       inkscape:transform-center-y="-0.0080975957"
       transform="matrix(0.27989752,0,0,0.18453193,17.839196,224.95448)" />
    <path
       id="path977"
       d="m 7.6205192,213.66699 c 0,21.73363 0,21.73363 0,21.73363 v 0"
       style="opacity:1;fill:none;stroke:#888888;stroke-width:0.264583px;stroke-linecap:butt;stroke-linejoin:miter;stroke-opacity:1" />
    <g
       transform="translate(58.953274,-9.156541)"
       style="font-style:normal;font-variant:normal;font-weight:normal;font-stretch:normal;font-size:4.23333px;line-height:1.25;font-family:'Arial Narrow';-inkscape-font-specification:'Arial Narrow, Normal';font-variant-ligatures:normal;font-variant-caps:normal;font-variant-numeric:normal;font-variant-east-asian:normal;word-spacing:0px;fill:#808080;stroke:none;stroke-width:0.265;stroke-miterlimit:4;stroke-dasharray:none;stroke-opacity:1"
       id="text1575"
       aria-label="Delay">
      <path
         id="path1577"
         style="font-style:normal;font-variant:normal;font-weight:normal;font-stretch:normal;font-size:4.23333px;font-family:'Arial Narrow';-inkscape-font-specification:'Arial Narrow, Normal';font-variant-ligatures:normal;font-variant-caps:normal;font-variant-numeric:normal;font-variant-east-asian:normal;fill:#808080;stroke:none;stroke-width:0.265;stroke-miterlimit:4;stroke-dasharray:none;stroke-opacity:1"
         d="m -40.749969,211.58926 v -3.0303 h 0.857829 q 0.318327,0 0.483691,0.0558 0.217041,0.0724 0.376205,0.26458 0.159163,0.19224 0.248047,0.48576 0.08888,0.29146 0.08888,0.69246 0,0.5147 -0.150895,0.87437 -0.150895,0.3576 -0.388607,0.5085 -0.235644,0.14882 -0.61805,0.14882 z m 0.328662,-0.3576 h 0.529167 q 0.320394,0 0.485758,-0.10335 0.165365,-0.10542 0.254248,-0.33693 0.117823,-0.30799 0.117823,-0.73794 0,-0.46095 -0.126091,-0.72347 -0.124023,-0.26458 -0.320394,-0.35347 -0.132291,-0.0599 -0.419612,-0.0599 h -0.520899 z" />
      <path
         id="path1579"
         style="font-style:normal;font-variant:normal;font-weight:normal;font-stretch:normal;font-size:4.23333px;font-family:'Arial Narrow';-inkscape-font-specification:'Arial Narrow, Normal';font-variant-ligatures:normal;font-variant-caps:normal;font-variant-numeric:normal;font-variant-east-asian:normal;fill:#808080;stroke:none;stroke-width:0.265;stroke-miterlimit:4;stroke-dasharray:none;stroke-opacity:1"
         d="m -37.049936,210.88233 0.314192,0.0475 q -0.07855,0.3514 -0.285254,0.53124 -0.204638,0.17776 -0.508496,0.17776 -0.382405,0 -0.620117,-0.28938 -0.235644,-0.29146 -0.235644,-0.83923 0,-0.56844 0.237711,-0.8661 0.239779,-0.29972 0.605648,-0.29972 0.349333,0 0.58291,0.29352 0.233578,0.29352 0.233578,0.84956 l -0.0021,0.0992 h -1.343588 q 0.0186,0.37 0.171566,0.55811 0.152962,0.1881 0.37207,0.1881 0.343132,0 0.477491,-0.45062 z m -1.002523,-0.60151 h 1.00459 q -0.02067,-0.28526 -0.121957,-0.42582 -0.146761,-0.20464 -0.374137,-0.20464 -0.204639,0 -0.349333,0.17157 -0.144694,0.1695 -0.159163,0.45889 z" />
      <path
         id="path1581"
         style="font-style:normal;font-variant:normal;font-weight:normal;font-stretch:normal;font-size:4.23333px;font-family:'Arial Narrow';-inkscape-font-specification:'Arial Narrow, Normal';font-variant-ligatures:normal;font-variant-caps:normal;font-variant-numeric:normal;font-variant-east-asian:normal;fill:#808080;stroke:none;stroke-width:0.265;stroke-miterlimit:4;stroke-dasharray:none;stroke-opacity:1"
         d="m -36.355405,211.58926 v -3.0303 h 0.303857 v 3.0303 z" />
      <path
         id="path1583"
         style="font-style:normal;font-variant:normal;font-weight:normal;font-stretch:normal;font-size:4.23333px;font-family:'Arial Narrow';-inkscape-font-specification:'Arial Narrow, Normal';font-variant-ligatures:normal;font-variant-caps:normal;font-variant-numeric:normal;font-variant-east-asian:normal;fill:#808080;stroke:none;stroke-width:0.265;stroke-miterlimit:4;stroke-dasharray:none;stroke-opacity:1"
         d="m -34.404103,211.31848 q -0.152962,0.15916 -0.318327,0.23978 -0.165364,0.0806 -0.343131,0.0806 -0.28112,0 -0.448552,-0.1695 -0.167431,-0.16949 -0.167431,-0.45682 0,-0.19016 0.07855,-0.33693 0.07855,-0.14676 0.214974,-0.22944 0.136426,-0.0827 0.413411,-0.12196 0.372071,-0.0537 0.545703,-0.12815 l 0.0021,-0.0951 q 0,-0.22531 -0.08061,-0.31626 -0.113688,-0.13229 -0.349332,-0.13229 -0.212907,0 -0.318327,0.0889 -0.10542,0.0868 -0.15503,0.32867 l -0.299723,-0.0496 q 0.06408,-0.35347 0.258382,-0.5147 0.196371,-0.16123 0.560173,-0.16123 0.283187,0 0.444417,0.10749 0.161231,0.10542 0.202572,0.26251 0.04341,0.1571 0.04341,0.45889 v 0.49609 q 0,0.5209 0.0186,0.65733 0.02067,0.13436 0.07855,0.26251 h -0.318327 q -0.04754,-0.11368 -0.06201,-0.27078 z m -0.02481,-0.83096 q -0.167431,0.0827 -0.49816,0.14056 -0.192237,0.0331 -0.268718,0.0765 -0.07648,0.0413 -0.119889,0.11989 -0.04134,0.0765 -0.04134,0.17777 0,0.1571 0.09715,0.25218 0.09715,0.093 0.268718,0.093 0.163297,0 0.295589,-0.0847 0.134359,-0.0848 0.200505,-0.22531 0.06614,-0.14263 0.06614,-0.41341 z" />
      <path
         id="path1585"
         style="font-style:normal;font-variant:normal;font-weight:normal;font-stretch:normal;font-size:4.23333px;font-family:'Arial Narrow';-inkscape-font-specification:'Arial Narrow, Normal';font-variant-ligatures:normal;font-variant-caps:normal;font-variant-numeric:normal;font-variant-east-asian:normal;fill:#808080;stroke:none;stroke-width:0.265;stroke-miterlimit:4;stroke-dasharray:none;stroke-opacity:1"
         d="m -33.651694,212.43469 -0.03307,-0.34933 q 0.101286,0.0331 0.173633,0.0331 0.09715,0 0.159163,-0.0393 0.06408,-0.0393 0.10542,-0.12196 0.01447,-0.0289 0.119889,-0.3638 l -0.684196,-2.19935 h 0.328662 l 0.376205,1.27124 q 0.07028,0.23771 0.130224,0.5085 0.05168,-0.25632 0.124024,-0.50023 l 0.384472,-1.27951 h 0.305925 l -0.684196,2.23242 q -0.134359,0.43408 -0.212907,0.57878 -0.07648,0.14676 -0.1757,0.21084 -0.09715,0.0641 -0.221175,0.0641 -0.08682,0 -0.19637,-0.0455 z" />
    </g>
    <path
       style="display:inline;opacity:1;mix-blend-mode:normal;fill:none;stroke:#888888;stroke-width:0.0789255px;stroke-linecap:butt;stroke-linejoin:miter;stroke-opacity:1"
       d="m 22.737602,197.07906 c 0,1.934 0,1.934 0,1.934 v 0"
       id="path977-8" />
    <path
       id="path2171"
       d="m 22.737602,202.79993 c 0,1.934 0,1.934 0,1.934 v 0"
       style="display:inline;opacity:1;mix-blend-mode:normal;fill:none;stroke:#888888;stroke-width:0.0789255px;stroke-linecap:butt;stroke-linejoin:miter;stroke-opacity:1" />
  </g>
  <g
     inkscape:groupmode="layer"
     id="layer2"
     inkscape:label="components"
     style="display:none;mix-blend-mode:normal">
    <circle
       style="display:inline;opacity:1;vector-effect:none;fill:#ff0000;fill-opacity:1;fill-rule:evenodd;stroke:none;stroke-width:1;stroke-linecap:butt;stroke-linejoin:miter;stroke-miterlimit:4;stroke-dasharray:none;stroke-dashoffset:0;stroke-opacity:1;paint-order:normal"
       id="path4954"
       cx="22.737602"
       cy="24.669807"
       r="4"
       inkscape:label="pitch">
      <title
         id="title860">pitch</title>
    </circle>
    <circle
       inkscape:label="Out"
       r="4"
       cy="82.842651"
       cx="22.731636"
       id="circle865"
       style="display:inline;opacity:1;vector-effect:none;fill:#0000ff;fill-opacity:1;fill-rule:evenodd;stroke:none;stroke-width:1;stroke-linecap:butt;stroke-linejoin:miter;stroke-miterlimit:4;stroke-dasharray:none;stroke-dashoffset:0;stroke-opacity:1;paint-order:normal">
      <title
         id="title882">Out</title>
    </circle>
    <circle
       inkscape:label="In"
       style="display:inline;opacity:1;vector-effect:none;fill:#00ff00;fill-opacity:1;fill-rule:evenodd;stroke:none;stroke-width:1;stroke-linecap:butt;stroke-linejoin:miter;stroke-miterlimit:4;stroke-dasharray:none;stroke-dashoffset:0;stroke-opacity:1;paint-order:normal"
       id="circle879"
       cx="7.6205192"
       cy="82.842651"
       r="4">
      <title
         id="title866">in</title>
    </circle>
    <circle
       inkscape:label="FBack"
       r="4"
       cy="112.76672"
       cx="10.618474"
       id="circle916"
       style="display:inline;vector-effect:none;fill:#ff0000;fill-opacity:1;fill-rule:evenodd;stroke:none;stroke-width:1;stroke-linecap:butt;stroke-linejoin:miter;stroke-miterlimit:4;stroke-dasharray:none;stroke-dashoffset:0;stroke-opacity:1;paint-order:normal">
      <title
         id="title914">FBack</title>
    </circle>
    <circle
       r="4"
       cy="112.45902"
       cx="23.210695"
       id="circle920"
       style="display:inline;vector-effect:none;fill:#00ff00;fill-opacity:1;fill-rule:evenodd;stroke:none;stroke-width:1;stroke-linecap:butt;stroke-linejoin:miter;stroke-miterlimit:4;stroke-dasharray:none;stroke-dashoffset:0;stroke-opacity:1;paint-order:normal"
       inkscape:label="FBack">
      <title
         id="title918">FBack</title>
    </circle>
    <circle
       inkscape:label="PickupMod"
       r="4"
       cy="56.033829"
       cx="7.6205192"
       id="circle924"
       style="display:inline;opacity:1;vector-effect:none;fill:#ff0000;fill-opacity:1;fill-rule:evenodd;stroke:none;stroke-width:1;stroke-linecap:butt;stroke-linejoin:miter;stroke-miterlimit:4;stroke-dasharray:none;stroke-dashoffset:0;stroke-opacity:1;paint-order:normal">
      <title
         id="title922">PickupMod</title>
    </circle>
    <circle
       r="4"
       cy="39.445892"
       cx="22.737602"
       id="circle928"
       style="display:inline;opacity:1;vector-effect:none;fill:#00ff00;fill-opacity:1;fill-rule:evenodd;stroke:none;stroke-width:1;stroke-linecap:butt;stroke-linejoin:miter;stroke-miterlimit:4;stroke-dasharray:none;stroke-dashoffset:0;stroke-opacity:1;paint-order:normal"
       inkscape:label="pitch">
      <title
         id="title926">pitch</title>
    </circle>
    <circle
       style="display:inline;opacity:0.94;vector-effect:none;fill:#ff0000;fill-opacity:1;fill-rule:evenodd;stroke:none;stroke-width:1;stroke-linecap:butt;stroke-linejoin:miter;stroke-miterlimit:4;stroke-dasharray:none;stroke-dashoffset:0;stroke-opacity:1;paint-order:normal"
       id="circle908"
       cx="7.6205192"
       cy="24.669807"
       r="4"
       inkscape:label="DAdjust">
      <title
         id="title906">DAdjust</title>
    </circle>
    <circle
       inkscape:label="Pickup"
       r="4"
       cy="46.464073"
       cx="7.6205192"
       id="circle934"
       style="display:inline;opacity:1;vector-effect:none;fill:#ff0000;fill-opacity:1;fill-rule:evenodd;stroke:none;stroke-width:1;stroke-linecap:butt;stroke-linejoin:miter;stroke-miterlimit:4;stroke-dasharray:none;stroke-dashoffset:0;stroke-opacity:1;paint-order:normal">
      <title
         id="title932">Pickup</title>
    </circle>
    <circle
       style="display:inline;opacity:1;vector-effect:none;fill:#0000ff;fill-opacity:1;fill-rule:evenodd;stroke:none;stroke-width:1;stroke-linecap:butt;stroke-linejoin:miter;stroke-miterlimit:4;stroke-dasharray:none;stroke-dashoffset:0;stroke-opacity:1;paint-order:normal"
       id="circle944"
       cx="22.731636"
       cy="65.603584"
       r="4"
       inkscape:label="Pickup">
      <title
         id="title942">Pickup</title>
    </circle>
    <circle
       inkscape:label="PickupMod"
       style="display:inline;opacity:1;vector-effect:none;fill:#00ff00;fill-opacity:1;fill-rule:evenodd;stroke:none;stroke-width:1;stroke-linecap:butt;stroke-linejoin:miter;stroke-miterlimit:4;stroke-dasharray:none;stroke-dashoffset:0;stroke-opacity:1;paint-order:normal"
       id="circle996"
       cx="7.6205192"
       cy="65.603584"
       r="4">
      <title
         id="title994">PickupMod</title>
    </circle>
  </g>
</svg>
